<?xml version="1.0" encoding="UTF-8"?>
<svg version="1.1" xmlns="http://www.w3.org/2000/svg" width="200" height="200">
<path d="M0 0 C66 0 132 0 200 0 C200 66 200 132 200 200 C134 200 68 200 0 200 C0 134 0 68 0 0 Z " fill="#322E20" transform="translate(0,0)"/>
<path d="M0 0 C0.93147858 0.00359528 1.86295715 0.00719055 2.82266235 0.01089478 C3.79816544 0.01074875 4.77366852 0.01060272 5.7787323 0.01045227 C9.01987899 0.01115184 12.260969 0.01894626 15.50210571 0.02676392 C17.74270089 0.02862794 19.98329648 0.03005192 22.22389221 0.03105164 C28.13404456 0.03487804 34.04417251 0.04470936 39.95431519 0.05575562 C45.98000763 0.06596711 52.005704 0.07054869 58.03140259 0.07559204 C69.86409563 0.08633152 81.69677052 0.10340941 93.52944946 0.12442017 C93.52944946 0.78442017 93.52944946 1.44442017 93.52944946 2.12442017 C91.54944946 2.12442017 89.56944946 2.12442017 87.52944946 2.12442017 C86.0589761 6.03505241 86.0589761 6.03505241 85.52944946 10.12442017 C84.86944946 10.12442017 84.20944946 10.12442017 83.52944946 10.12442017 C83.19944946 11.11442017 82.86944946 12.10442017 82.52944946 13.12442017 C80.59194946 12.37442017 80.59194946 12.37442017 78.52944946 11.12442017 C77.77944946 8.99942017 77.77944946 8.99942017 77.52944946 7.12442017 C78.51944946 6.79442017 79.50944946 6.46442017 80.52944946 6.12442017 C81.74814875 3.61994501 81.74814875 3.61994501 82.52944946 1.12442017 C79.55944946 1.78442017 76.58944946 2.44442017 73.52944946 3.12442017 C73.19944946 4.44442017 72.86944946 5.76442017 72.52944946 7.12442017 C71.86944946 7.12442017 71.20944946 7.12442017 70.52944946 7.12442017 C72.34167481 9.18691956 72.34167481 9.18691956 74.52944946 11.12442017 C75.51944946 11.12442017 76.50944946 11.12442017 77.52944946 11.12442017 C77.19944946 12.11442017 76.86944946 13.10442017 76.52944946 14.12442017 C75.86944946 14.12442017 75.20944946 14.12442017 74.52944946 14.12442017 C74.52944946 14.78442017 74.52944946 15.44442017 74.52944946 16.12442017 C73.53944946 16.12442017 72.54944946 16.12442017 71.52944946 16.12442017 C72.51944946 17.60942017 72.51944946 17.60942017 73.52944946 19.12442017 C74.31319946 18.46442017 75.09694946 17.80442017 75.90444946 17.12442017 C78.52944946 15.12442017 78.52944946 15.12442017 80.52944946 15.12442017 C80.19944946 17.10442017 79.86944946 19.08442017 79.52944946 21.12442017 C77.21944946 21.12442017 74.90944946 21.12442017 72.52944946 21.12442017 C72.52944946 21.78442017 72.52944946 22.44442017 72.52944946 23.12442017 C70.54944946 23.12442017 68.56944946 23.12442017 66.52944946 23.12442017 C66.52944946 21.80442017 66.52944946 20.48442017 66.52944946 19.12442017 C64.87944946 19.12442017 63.22944946 19.12442017 61.52944946 19.12442017 C61.52944946 19.78442017 61.52944946 20.44442017 61.52944946 21.12442017 C60.34194946 22.81192017 60.34194946 22.81192017 58.52944946 24.12442017 C57.72507446 23.95942017 56.92069946 23.79442017 56.09194946 23.62442017 C55.24632446 23.45942017 54.40069946 23.29442017 53.52944946 23.12442017 C51.39600179 24.51610777 51.39600179 24.51610777 49.52944946 26.12442017 C48.53944946 26.12442017 47.54944946 26.12442017 46.52944946 26.12442017 C46.52944946 25.13442017 46.52944946 24.14442017 46.52944946 23.12442017 C45.04444946 23.61942017 45.04444946 23.61942017 43.52944946 24.12442017 C43.52944946 24.78442017 43.52944946 25.44442017 43.52944946 26.12442017 C42.53944946 26.12442017 41.54944946 26.12442017 40.52944946 26.12442017 C40.85944946 24.47442017 41.18944946 22.82442017 41.52944946 21.12442017 C38.66952312 21.62911305 36.08902217 22.27986509 33.34194946 23.24942017 C30.52944946 24.12442017 30.52944946 24.12442017 28.52944946 23.12442017 C28.19944946 23.78442017 27.86944946 24.44442017 27.52944946 25.12442017 C28.84944946 25.45442017 30.16944946 25.78442017 31.52944946 26.12442017 C30.65444946 31.87442017 30.65444946 31.87442017 29.52944946 34.12442017 C32.49944946 33.62942017 32.49944946 33.62942017 35.52944946 33.12442017 C35.52944946 33.78442017 35.52944946 34.44442017 35.52944946 35.12442017 C36.51944946 34.13442017 37.50944946 33.14442017 38.52944946 32.12442017 C37.20944946 31.46442017 35.88944946 30.80442017 34.52944946 30.12442017 C34.52944946 30.78442017 34.52944946 31.44442017 34.52944946 32.12442017 C33.86944946 32.12442017 33.20944946 32.12442017 32.52944946 32.12442017 C32.52944946 29.81442017 32.52944946 27.50442017 32.52944946 25.12442017 C33.84944946 25.45442017 35.16944946 25.78442017 36.52944946 26.12442017 C37.18944946 25.13442017 37.84944946 24.14442017 38.52944946 23.12442017 C39.02444946 25.59942017 39.02444946 25.59942017 39.52944946 28.12442017 C40.18944946 28.12442017 40.84944946 28.12442017 41.52944946 28.12442017 C42.51944946 31.58942017 42.51944946 31.58942017 43.52944946 35.12442017 C46.49944946 34.46442017 49.46944946 33.80442017 52.52944946 33.12442017 C52.85944946 34.11442017 53.18944946 35.10442017 53.52944946 36.12442017 C55.17944946 36.12442017 56.82944946 36.12442017 58.52944946 36.12442017 C58.52944946 35.13442017 58.52944946 34.14442017 58.52944946 33.12442017 C59.18944946 33.12442017 59.84944946 33.12442017 60.52944946 33.12442017 C60.52944946 33.78442017 60.52944946 34.44442017 60.52944946 35.12442017 C61.18944946 35.45442017 61.84944946 35.78442017 62.52944946 36.12442017 C61.53944946 36.12442017 60.54944946 36.12442017 59.52944946 36.12442017 C60.02444946 38.10442017 60.02444946 38.10442017 60.52944946 40.12442017 C59.53944946 40.12442017 58.54944946 40.12442017 57.52944946 40.12442017 C57.44694946 40.70192017 57.36444946 41.27942017 57.27944946 41.87442017 C56.32413933 44.74035056 54.74475773 46.12349657 52.52944946 48.12442017 C54.50944946 49.11442017 56.48944946 50.10442017 58.52944946 51.12442017 C58.52944946 50.13442017 58.52944946 49.14442017 58.52944946 48.12442017 C59.18944946 47.79442017 59.84944946 47.46442017 60.52944946 47.12442017 C61.18500065 44.59708782 61.18500065 44.59708782 61.52944946 42.12442017 C63.17944946 41.79442017 64.82944946 41.46442017 66.52944946 41.12442017 C66.52944946 42.11442017 66.52944946 43.10442017 66.52944946 44.12442017 C67.84944946 43.79442017 69.16944946 43.46442017 70.52944946 43.12442017 C70.19944946 44.44442017 69.86944946 45.76442017 69.52944946 47.12442017 C68.86944946 47.12442017 68.20944946 47.12442017 67.52944946 47.12442017 C67.52944946 48.11442017 67.52944946 49.10442017 67.52944946 50.12442017 C68.84944946 50.12442017 70.16944946 50.12442017 71.52944946 50.12442017 C72.02444946 49.13442017 72.02444946 49.13442017 72.52944946 48.12442017 C74.46694946 48.68692017 74.46694946 48.68692017 76.52944946 50.12442017 C77.27944946 53.74942017 77.27944946 53.74942017 77.52944946 57.12442017 C78.84944946 57.12442017 80.16944946 57.12442017 81.52944946 57.12442017 C80.53944946 48.21442017 80.53944946 48.21442017 79.52944946 39.12442017 C77.87944946 38.79442017 76.22944946 38.46442017 74.52944946 38.12442017 C75.02444946 37.13442017 75.02444946 37.13442017 75.52944946 36.12442017 C78.16944946 36.45442017 80.80944946 36.78442017 83.52944946 37.12442017 C83.52944946 37.78442017 83.52944946 38.44442017 83.52944946 39.12442017 C84.84944946 39.12442017 86.16944946 39.12442017 87.52944946 39.12442017 C87.52944946 37.80442017 87.52944946 36.48442017 87.52944946 35.12442017 C88.18944946 35.45442017 88.84944946 35.78442017 89.52944946 36.12442017 C89.19944946 37.77442017 88.86944946 39.42442017 88.52944946 41.12442017 C86.87944946 41.12442017 85.22944946 41.12442017 83.52944946 41.12442017 C84.51944946 45.08442017 84.51944946 45.08442017 85.52944946 49.12442017 C87.50944946 49.61942017 87.50944946 49.61942017 89.52944946 50.12442017 C89.48819946 48.90754517 89.44694946 47.69067017 89.40444946 46.43692017 C89.40444946 42.9084956 89.80990224 40.27692341 91.52944946 37.12442017 C92.18944946 36.79442017 92.84944946 36.46442017 93.52944946 36.12442017 C94.57161823 45.92637153 94.86247441 55.71358136 95.13491821 65.56192017 C95.31367412 71.44237308 95.57014597 77.23767803 96.3019104 83.07559204 C96.70737565 86.72651945 96.77406161 90.39281362 96.90444946 94.06192017 C97.24058973 102.2259952 98.08022948 110.26832942 99.09194946 118.37442017 C100.29282411 128.03584188 100.92642153 137.3912533 100.52944946 147.12442017 C99.53944946 147.12442017 98.54944946 147.12442017 97.52944946 147.12442017 C97.19944946 146.79442017 96.86944946 146.46442017 96.52944946 146.12442017 C95.53944946 148.76442017 94.54944946 151.40442017 93.52944946 154.12442017 C93.19944946 154.12442017 92.86944946 154.12442017 92.52944946 154.12442017 C92.46886353 153.01582642 92.40827759 151.90723267 92.34585571 150.76504517 C92.26141995 149.30149197 92.17677348 147.83795091 92.09194946 146.37442017 C92.05263306 145.64481079 92.01331665 144.91520142 91.97280884 144.16348267 C91.7547184 140.11597441 91.7547184 140.11597441 91.02824402 136.13912964 C90.51109555 134.05028584 90.33427227 132.1460206 90.23233032 129.9984436 C90.17238136 128.79765167 90.17238136 128.79765167 90.11122131 127.57260132 C90.07263504 126.71829529 90.03404877 125.86398926 89.99429321 124.98379517 C89.9298275 123.66052216 89.9298275 123.66052216 89.86405945 122.31051636 C89.72793661 119.49864972 89.59737225 116.68655639 89.46694946 113.87442017 C89.3755191 111.96554841 89.28372649 110.05669397 89.19155884 108.14785767 C88.96665501 103.47356886 88.74673524 98.79906904 88.52944946 94.12442017 C87.90038696 93.86016235 87.27132446 93.59590454 86.62319946 93.32363892 C83.90927577 91.76920874 83.4003181 89.91634122 82.32241821 87.06973267 C81.48815269 85.02311083 80.47297954 83.20887588 79.34194946 81.31192017 C77.52944946 78.12442017 77.52944946 78.12442017 77.52944946 76.12442017 C76.86944946 76.12442017 76.20944946 76.12442017 75.52944946 76.12442017 C74.20944946 72.49442017 72.88944946 68.86442017 71.52944946 65.12442017 C70.53944946 65.12442017 69.54944946 65.12442017 68.52944946 65.12442017 C68.19944946 64.13442017 67.86944946 63.14442017 67.52944946 62.12442017 C65.05678181 62.46886897 65.05678181 62.46886897 62.52944946 63.12442017 C62.19944946 63.78442017 61.86944946 64.44442017 61.52944946 65.12442017 C60.53944946 63.14442017 60.53944946 63.14442017 59.52944946 61.12442017 C60.51944946 60.79442017 61.50944946 60.46442017 62.52944946 60.12442017 C61.53944946 58.14442017 61.53944946 58.14442017 60.52944946 56.12442017 C59.53944946 56.12442017 58.54944946 56.12442017 57.52944946 56.12442017 C57.52944946 56.78442017 57.52944946 57.44442017 57.52944946 58.12442017 C55.52944946 60.12442017 55.52944946 60.12442017 53.36538696 60.31973267 C52.55327759 60.29652954 51.74116821 60.27332642 50.90444946 60.24942017 C50.08718384 60.23137329 49.26991821 60.21332642 48.42788696 60.19473267 C47.80140259 60.17152954 47.17491821 60.14832642 46.52944946 60.12442017 C46.52944946 58.14442017 46.52944946 56.16442017 46.52944946 54.12442017 C46.19944946 55.77442017 45.86944946 57.42442017 45.52944946 59.12442017 C43.87944946 59.45442017 42.22944946 59.78442017 40.52944946 60.12442017 C40.52944946 59.46442017 40.52944946 58.80442017 40.52944946 58.12442017 C39.86944946 57.79442017 39.20944946 57.46442017 38.52944946 57.12442017 C39.02444946 56.13442017 39.02444946 56.13442017 39.52944946 55.12442017 C38.53944946 55.12442017 37.54944946 55.12442017 36.52944946 55.12442017 C36.19944946 56.11442017 35.86944946 57.10442017 35.52944946 58.12442017 C36.51944946 58.45442017 37.50944946 58.78442017 38.52944946 59.12442017 C39.71694946 61.18692017 39.71694946 61.18692017 40.52944946 63.12442017 C37.65444946 62.87442017 37.65444946 62.87442017 34.52944946 62.12442017 C33.34194946 60.12442017 33.34194946 60.12442017 32.52944946 58.12442017 C31.53944946 57.79442017 30.54944946 57.46442017 29.52944946 57.12442017 C29.52944946 58.11442017 29.52944946 59.10442017 29.52944946 60.12442017 C28.20944946 59.79442017 26.88944946 59.46442017 25.52944946 59.12442017 C25.52944946 59.78442017 25.52944946 60.44442017 25.52944946 61.12442017 C24.53944946 60.79442017 23.54944946 60.46442017 22.52944946 60.12442017 C21.84194946 58.06192017 21.84194946 58.06192017 21.52944946 56.12442017 C19.05444946 56.61942017 19.05444946 56.61942017 16.52944946 57.12442017 C17.97142815 58.56639885 19.70636517 59.24228261 21.52944946 60.12442017 C20.86944946 60.12442017 20.20944946 60.12442017 19.52944946 60.12442017 C19.85944946 61.11442017 20.18944946 62.10442017 20.52944946 63.12442017 C19.16819946 62.84598267 19.16819946 62.84598267 17.77944946 62.56192017 C14.84630622 62.16707396 13.26498377 62.17750445 10.52944946 63.12442017 C10.19944946 62.46442017 9.86944946 61.80442017 9.52944946 61.12442017 C8.86944946 62.11442017 8.20944946 63.10442017 7.52944946 64.12442017 C8.18944946 64.12442017 8.84944946 64.12442017 9.52944946 64.12442017 C9.52944946 64.78442017 9.52944946 65.44442017 9.52944946 66.12442017 C7.87944946 66.12442017 6.22944946 66.12442017 4.52944946 66.12442017 C3.86944946 64.80442017 3.20944946 63.48442017 2.52944946 62.12442017 C1.86944946 62.12442017 1.20944946 62.12442017 0.52944946 62.12442017 C0.52944946 61.46442017 0.52944946 60.80442017 0.52944946 60.12442017 C3.16944946 59.79442017 5.80944946 59.46442017 8.52944946 59.12442017 C8.52944946 58.46442017 8.52944946 57.80442017 8.52944946 57.12442017 C9.84944946 57.12442017 11.16944946 57.12442017 12.52944946 57.12442017 C12.52944946 55.14442017 12.52944946 53.16442017 12.52944946 51.12442017 C9.55944946 50.62942017 9.55944946 50.62942017 6.52944946 50.12442017 C6.19944946 49.13442017 5.86944946 48.14442017 5.52944946 47.12442017 C3.54944946 47.61942017 3.54944946 47.61942017 1.52944946 48.12442017 C1.85944946 49.77442017 2.18944946 51.42442017 2.52944946 53.12442017 C2.13757446 52.65004517 1.74569946 52.17567017 1.34194946 51.68692017 C-0.40867295 49.91668314 -0.40867295 49.91668314 -3.03305054 49.62442017 C-5.47055054 49.12442017 -5.47055054 49.12442017 -7.47055054 46.12442017 C-6.48055054 46.12442017 -5.49055054 46.12442017 -4.47055054 46.12442017 C-5.13055054 45.13442017 -5.79055054 44.14442017 -6.47055054 43.12442017 C-7.13055054 43.12442017 -7.79055054 43.12442017 -8.47055054 43.12442017 C-8.14055054 40.81442017 -7.81055054 38.50442017 -7.47055054 36.12442017 C-6.81055054 36.12442017 -6.15055054 36.12442017 -5.47055054 36.12442017 C-5.47055054 34.47442017 -5.47055054 32.82442017 -5.47055054 31.12442017 C-6.14601929 31.13602173 -6.82148804 31.14762329 -7.51742554 31.15957642 C-8.40945679 31.16859985 -9.30148804 31.17762329 -10.22055054 31.18692017 C-11.54312866 31.20432251 -11.54312866 31.20432251 -12.89242554 31.22207642 C-15.25243433 31.13268214 -17.21553578 30.79354838 -19.47055054 30.12442017 C-19.47055054 29.13442017 -19.47055054 28.14442017 -19.47055054 27.12442017 C-20.13055054 27.12442017 -20.79055054 27.12442017 -21.47055054 27.12442017 C-21.47055054 26.13442017 -21.47055054 25.14442017 -21.47055054 24.12442017 C-19.49055054 24.45442017 -17.51055054 24.78442017 -15.47055054 25.12442017 C-14.81055054 24.13442017 -14.15055054 23.14442017 -13.47055054 22.12442017 C-14.79055054 20.80442017 -16.11055054 19.48442017 -17.47055054 18.12442017 C-16.48055054 18.12442017 -15.49055054 18.12442017 -14.47055054 18.12442017 C-14.80055054 16.80442017 -15.13055054 15.48442017 -15.47055054 14.12442017 C-16.13055054 14.12442017 -16.79055054 14.12442017 -17.47055054 14.12442017 C-17.80055054 13.13442017 -18.13055054 12.14442017 -18.47055054 11.12442017 C-18.80055054 11.12442017 -19.13055054 11.12442017 -19.47055054 11.12442017 C-20.13055054 12.77442017 -20.79055054 14.42442017 -21.47055054 16.12442017 C-22.79055054 15.79442017 -24.11055054 15.46442017 -25.47055054 15.12442017 C-25.47055054 13.80442017 -25.47055054 12.48442017 -25.47055054 11.12442017 C-24.48055054 11.12442017 -23.49055054 11.12442017 -22.47055054 11.12442017 C-22.14055054 8.81442017 -21.81055054 6.50442017 -21.47055054 4.12442017 C-19.16055054 4.45442017 -16.85055054 4.78442017 -14.47055054 5.12442017 C-14.47055054 6.11442017 -14.47055054 7.10442017 -14.47055054 8.12442017 C-13.81055054 8.12442017 -13.15055054 8.12442017 -12.47055054 8.12442017 C-13.04639486 5.7387794 -13.69282648 3.45759232 -14.47055054 1.12442017 C-13.33617554 1.14504517 -12.20180054 1.16567017 -11.03305054 1.18692017 C-7.16849118 1.11912088 -4.12405544 0.0067267 0 0 Z M-1.90805054 52.06192017 C-0.70148804 52.09285767 -0.70148804 52.09285767 0.52944946 52.12442017 C0.19944946 53.77442017 -0.13055054 55.42442017 -0.47055054 57.12442017 C-1.79055054 57.12442017 -3.11055054 57.12442017 -4.47055054 57.12442017 C-5.03305054 55.18692017 -5.03305054 55.18692017 -5.47055054 53.12442017 C-4.47055054 52.12442017 -4.47055054 52.12442017 -1.90805054 52.06192017 Z " fill="#333224" transform="translate(59.470550537109375,-0.124420166015625)"/>
<path d="M0 0 C0.93147858 0.00359528 1.86295715 0.00719055 2.82266235 0.01089478 C3.79816544 0.01074875 4.77366852 0.01060272 5.7787323 0.01045227 C9.01987899 0.01115184 12.260969 0.01894626 15.50210571 0.02676392 C17.74270089 0.02862794 19.98329648 0.03005192 22.22389221 0.03105164 C28.13404456 0.03487804 34.04417251 0.04470936 39.95431519 0.05575562 C45.98000763 0.06596711 52.005704 0.07054869 58.03140259 0.07559204 C69.86409563 0.08633152 81.69677052 0.10340941 93.52944946 0.12442017 C93.52944946 0.78442017 93.52944946 1.44442017 93.52944946 2.12442017 C91.54944946 2.12442017 89.56944946 2.12442017 87.52944946 2.12442017 C86.0589761 6.03505241 86.0589761 6.03505241 85.52944946 10.12442017 C84.86944946 10.12442017 84.20944946 10.12442017 83.52944946 10.12442017 C83.19944946 11.11442017 82.86944946 12.10442017 82.52944946 13.12442017 C80.59194946 12.37442017 80.59194946 12.37442017 78.52944946 11.12442017 C77.77944946 8.99942017 77.77944946 8.99942017 77.52944946 7.12442017 C78.51944946 6.79442017 79.50944946 6.46442017 80.52944946 6.12442017 C81.74814875 3.61994501 81.74814875 3.61994501 82.52944946 1.12442017 C79.55944946 1.78442017 76.58944946 2.44442017 73.52944946 3.12442017 C73.19944946 4.44442017 72.86944946 5.76442017 72.52944946 7.12442017 C71.86944946 7.12442017 71.20944946 7.12442017 70.52944946 7.12442017 C72.34167481 9.18691956 72.34167481 9.18691956 74.52944946 11.12442017 C75.51944946 11.12442017 76.50944946 11.12442017 77.52944946 11.12442017 C77.19944946 12.11442017 76.86944946 13.10442017 76.52944946 14.12442017 C75.86944946 14.12442017 75.20944946 14.12442017 74.52944946 14.12442017 C74.52944946 14.78442017 74.52944946 15.44442017 74.52944946 16.12442017 C73.53944946 16.12442017 72.54944946 16.12442017 71.52944946 16.12442017 C72.51944946 17.60942017 72.51944946 17.60942017 73.52944946 19.12442017 C74.31319946 18.46442017 75.09694946 17.80442017 75.90444946 17.12442017 C78.52944946 15.12442017 78.52944946 15.12442017 80.52944946 15.12442017 C80.19944946 17.10442017 79.86944946 19.08442017 79.52944946 21.12442017 C77.21944946 21.12442017 74.90944946 21.12442017 72.52944946 21.12442017 C72.52944946 21.78442017 72.52944946 22.44442017 72.52944946 23.12442017 C70.54944946 23.12442017 68.56944946 23.12442017 66.52944946 23.12442017 C66.52944946 21.80442017 66.52944946 20.48442017 66.52944946 19.12442017 C64.87944946 19.12442017 63.22944946 19.12442017 61.52944946 19.12442017 C61.52944946 19.78442017 61.52944946 20.44442017 61.52944946 21.12442017 C60.40444946 22.81192017 60.40444946 22.81192017 58.52944946 24.12442017 C55.34194946 23.81192017 55.34194946 23.81192017 52.52944946 23.12442017 C52.03444946 21.63942017 52.03444946 21.63942017 51.52944946 20.12442017 C48.55944946 20.12442017 45.58944946 20.12442017 42.52944946 20.12442017 C42.03444946 18.14442017 42.03444946 18.14442017 41.52944946 16.12442017 C40.86944946 16.12442017 40.20944946 16.12442017 39.52944946 16.12442017 C39.03444946 17.60942017 39.03444946 17.60942017 38.52944946 19.12442017 C37.53944946 18.79442017 36.54944946 18.46442017 35.52944946 18.12442017 C35.85944946 16.80442017 36.18944946 15.48442017 36.52944946 14.12442017 C34.87944946 14.12442017 33.22944946 14.12442017 31.52944946 14.12442017 C31.52944946 15.11442017 31.52944946 16.10442017 31.52944946 17.12442017 C30.53944946 17.12442017 29.54944946 17.12442017 28.52944946 17.12442017 C28.19944946 16.79442017 27.86944946 16.46442017 27.52944946 16.12442017 C27.43663696 17.30004517 27.43663696 17.30004517 27.34194946 18.49942017 C27.07382446 19.36567017 26.80569946 20.23192017 26.52944946 21.12442017 C23.96694946 22.43692017 23.96694946 22.43692017 21.52944946 23.12442017 C21.52944946 24.44442017 21.52944946 25.76442017 21.52944946 27.12442017 C20.86944946 26.79442017 20.20944946 26.46442017 19.52944946 26.12442017 C19.03444946 27.60942017 19.03444946 27.60942017 18.52944946 29.12442017 C17.86944946 29.12442017 17.20944946 29.12442017 16.52944946 29.12442017 C15.67201295 24.73005806 15.43996388 20.59869941 15.52944946 16.12442017 C14.86944946 15.79442017 14.20944946 15.46442017 13.52944946 15.12442017 C14.51944946 14.79442017 15.50944946 14.46442017 16.52944946 14.12442017 C16.52944946 15.11442017 16.52944946 16.10442017 16.52944946 17.12442017 C17.51944946 16.79442017 18.50944946 16.46442017 19.52944946 16.12442017 C20.02444946 17.60942017 20.02444946 17.60942017 20.52944946 19.12442017 C21.84944946 18.79442017 23.16944946 18.46442017 24.52944946 18.12442017 C24.27383623 15.78129887 23.93674174 13.44598614 23.52944946 11.12442017 C22.86944946 10.79442017 22.20944946 10.46442017 21.52944946 10.12442017 C21.19944946 11.11442017 20.86944946 12.10442017 20.52944946 13.12442017 C20.52944946 11.80442017 20.52944946 10.48442017 20.52944946 9.12442017 C19.86944946 9.12442017 19.20944946 9.12442017 18.52944946 9.12442017 C18.52944946 9.78442017 18.52944946 10.44442017 18.52944946 11.12442017 C16.87944946 11.12442017 15.22944946 11.12442017 13.52944946 11.12442017 C13.52944946 11.78442017 13.52944946 12.44442017 13.52944946 13.12442017 C12.02944946 14.74942017 12.02944946 14.74942017 10.52944946 16.12442017 C11.18944946 16.45442017 11.84944946 16.78442017 12.52944946 17.12442017 C12.48819946 17.90817017 12.44694946 18.69192017 12.40444946 19.49942017 C12.24216212 22.28558136 12.24216212 22.28558136 14.52944946 24.12442017 C11.8820603 25.58504867 10.63496612 26.12442017 7.52944946 26.12442017 C7.52944946 27.11442017 7.52944946 28.10442017 7.52944946 29.12442017 C8.18944946 29.12442017 8.84944946 29.12442017 9.52944946 29.12442017 C10.10694946 30.09379517 10.68444946 31.06317017 11.27944946 32.06192017 C13.24999108 35.41182545 13.24999108 35.41182545 16.77944946 35.99942017 C17.68694946 36.04067017 18.59444946 36.08192017 19.52944946 36.12442017 C19.52944946 35.46442017 19.52944946 34.80442017 19.52944946 34.12442017 C18.53944946 33.62942017 18.53944946 33.62942017 17.52944946 33.12442017 C18.90444946 31.12442017 18.90444946 31.12442017 20.52944946 29.12442017 C21.18944946 29.12442017 21.84944946 29.12442017 22.52944946 29.12442017 C22.52944946 29.78442017 22.52944946 30.44442017 22.52944946 31.12442017 C24.50944946 31.78442017 26.48944946 32.44442017 28.52944946 33.12442017 C28.52944946 33.78442017 28.52944946 34.44442017 28.52944946 35.12442017 C27.86944946 35.12442017 27.20944946 35.12442017 26.52944946 35.12442017 C26.52944946 35.78442017 26.52944946 36.44442017 26.52944946 37.12442017 C27.84944946 37.45442017 29.16944946 37.78442017 30.52944946 38.12442017 C29.53944946 38.78442017 28.54944946 39.44442017 27.52944946 40.12442017 C27.85944946 40.78442017 28.18944946 41.44442017 28.52944946 42.12442017 C27.86944946 42.12442017 27.20944946 42.12442017 26.52944946 42.12442017 C26.52944946 42.78442017 26.52944946 43.44442017 26.52944946 44.12442017 C27.84944946 44.12442017 29.16944946 44.12442017 30.52944946 44.12442017 C31.02444946 43.13442017 31.02444946 43.13442017 31.52944946 42.12442017 C33.27572424 44.74383234 33.91667335 46.16266893 34.52944946 49.12442017 C31.95731812 50.74391027 30.85275788 51.16850768 27.77944946 50.74942017 C27.03694946 50.54317017 26.29444946 50.33692017 25.52944946 50.12442017 C25.85944946 49.13442017 26.18944946 48.14442017 26.52944946 47.12442017 C25.53944946 47.12442017 24.54944946 47.12442017 23.52944946 47.12442017 C23.09632446 48.33098267 23.09632446 48.33098267 22.65444946 49.56192017 C21.52944946 52.12442017 21.52944946 52.12442017 19.52944946 53.12442017 C19.52944946 52.13442017 19.52944946 51.14442017 19.52944946 50.12442017 C18.53944946 50.12442017 17.54944946 50.12442017 16.52944946 50.12442017 C16.19944946 49.46442017 15.86944946 48.80442017 15.52944946 48.12442017 C14.53944946 47.79442017 13.54944946 47.46442017 12.52944946 47.12442017 C12.52944946 46.46442017 12.52944946 45.80442017 12.52944946 45.12442017 C11.20944946 46.11442017 9.88944946 47.10442017 8.52944946 48.12442017 C8.19944946 47.46442017 7.86944946 46.80442017 7.52944946 46.12442017 C3.90059622 45.97292718 3.90059622 45.97292718 0.52944946 47.12442017 C0.52944946 46.46442017 0.52944946 45.80442017 0.52944946 45.12442017 C0.07569946 45.61942017 -0.37805054 46.11442017 -0.84555054 46.62442017 C-2.47055054 48.12442017 -2.47055054 48.12442017 -4.47055054 48.12442017 C-5.13055054 46.47442017 -5.79055054 44.82442017 -6.47055054 43.12442017 C-7.13055054 43.12442017 -7.79055054 43.12442017 -8.47055054 43.12442017 C-8.14055054 40.81442017 -7.81055054 38.50442017 -7.47055054 36.12442017 C-6.81055054 36.12442017 -6.15055054 36.12442017 -5.47055054 36.12442017 C-5.47055054 34.47442017 -5.47055054 32.82442017 -5.47055054 31.12442017 C-6.14601929 31.13602173 -6.82148804 31.14762329 -7.51742554 31.15957642 C-8.40945679 31.16859985 -9.30148804 31.17762329 -10.22055054 31.18692017 C-11.54312866 31.20432251 -11.54312866 31.20432251 -12.89242554 31.22207642 C-15.25243433 31.13268214 -17.21553578 30.79354838 -19.47055054 30.12442017 C-19.47055054 29.13442017 -19.47055054 28.14442017 -19.47055054 27.12442017 C-20.13055054 27.12442017 -20.79055054 27.12442017 -21.47055054 27.12442017 C-21.47055054 26.13442017 -21.47055054 25.14442017 -21.47055054 24.12442017 C-19.49055054 24.45442017 -17.51055054 24.78442017 -15.47055054 25.12442017 C-14.81055054 24.13442017 -14.15055054 23.14442017 -13.47055054 22.12442017 C-14.79055054 20.80442017 -16.11055054 19.48442017 -17.47055054 18.12442017 C-16.48055054 18.12442017 -15.49055054 18.12442017 -14.47055054 18.12442017 C-14.80055054 16.80442017 -15.13055054 15.48442017 -15.47055054 14.12442017 C-16.13055054 14.12442017 -16.79055054 14.12442017 -17.47055054 14.12442017 C-17.80055054 13.13442017 -18.13055054 12.14442017 -18.47055054 11.12442017 C-18.80055054 11.12442017 -19.13055054 11.12442017 -19.47055054 11.12442017 C-20.13055054 12.77442017 -20.79055054 14.42442017 -21.47055054 16.12442017 C-22.79055054 15.79442017 -24.11055054 15.46442017 -25.47055054 15.12442017 C-25.47055054 13.80442017 -25.47055054 12.48442017 -25.47055054 11.12442017 C-24.48055054 11.12442017 -23.49055054 11.12442017 -22.47055054 11.12442017 C-22.14055054 8.81442017 -21.81055054 6.50442017 -21.47055054 4.12442017 C-19.16055054 4.45442017 -16.85055054 4.78442017 -14.47055054 5.12442017 C-14.47055054 6.11442017 -14.47055054 7.10442017 -14.47055054 8.12442017 C-13.81055054 8.12442017 -13.15055054 8.12442017 -12.47055054 8.12442017 C-13.04639486 5.7387794 -13.69282648 3.45759232 -14.47055054 1.12442017 C-13.33617554 1.14504517 -12.20180054 1.16567017 -11.03305054 1.18692017 C-7.16849118 1.11912088 -4.12405544 0.0067267 0 0 Z " fill="#333222" transform="translate(59.470550537109375,-0.124420166015625)"/>
<path d="M0 0 C1.25159912 0.00523682 2.50319824 0.01047363 3.79272461 0.01586914 C4.78942421 0.01799156 4.78942421 0.01799156 5.80625916 0.02015686 C7.93590735 0.02577021 10.06545175 0.03832485 12.19506836 0.05102539 C13.63582205 0.05603868 15.07657739 0.06060188 16.51733398 0.06469727 C20.05577938 0.07574394 23.59416375 0.09301747 27.13256836 0.11352539 C27.13256836 1.10352539 27.13256836 2.09352539 27.13256836 3.11352539 C26.47256836 3.11352539 25.81256836 3.11352539 25.13256836 3.11352539 C25.62756836 4.59852539 25.62756836 4.59852539 26.13256836 6.11352539 C25.39006836 6.25790039 24.64756836 6.40227539 23.88256836 6.55102539 C22.97506836 6.73665039 22.06756836 6.92227539 21.13256836 7.11352539 C20.39006836 7.23727539 19.64756836 7.36102539 18.88256836 7.48852539 C18.01631836 7.79790039 18.01631836 7.79790039 17.13256836 8.11352539 C16.80256836 9.10352539 16.47256836 10.09352539 16.13256836 11.11352539 C15.14256836 11.11352539 14.15256836 11.11352539 13.13256836 11.11352539 C13.13256836 11.77352539 13.13256836 12.43352539 13.13256836 13.11352539 C12.47256836 13.11352539 11.81256836 13.11352539 11.13256836 13.11352539 C11.62756836 16.08352539 11.62756836 16.08352539 12.13256836 19.11352539 C12.79256836 19.11352539 13.45256836 19.11352539 14.13256836 19.11352539 C13.63756836 20.59852539 13.63756836 20.59852539 13.13256836 22.11352539 C12.14256836 22.11352539 11.15256836 22.11352539 10.13256836 22.11352539 C10.13256836 21.12352539 10.13256836 20.13352539 10.13256836 19.11352539 C9.14256836 19.77352539 8.15256836 20.43352539 7.13256836 21.11352539 C5.81256836 21.11352539 4.49256836 21.11352539 3.13256836 21.11352539 C3.13256836 21.77352539 3.13256836 22.43352539 3.13256836 23.11352539 C1.48256836 23.44352539 -0.16743164 23.77352539 -1.86743164 24.11352539 C-1.86743164 21.11352539 -1.86743164 21.11352539 0.13256836 19.11352539 C3.75756836 18.98852539 3.75756836 18.98852539 7.13256836 19.11352539 C7.13256836 17.79352539 7.13256836 16.47352539 7.13256836 15.11352539 C6.47256836 15.11352539 5.81256836 15.11352539 5.13256836 15.11352539 C5.13256836 16.10352539 5.13256836 17.09352539 5.13256836 18.11352539 C2.49256836 17.45352539 -0.14743164 16.79352539 -2.86743164 16.11352539 C-2.86743164 16.77352539 -2.86743164 17.43352539 -2.86743164 18.11352539 C-2.20743164 18.77352539 -1.54743164 19.43352539 -0.86743164 20.11352539 C-1.52743164 20.11352539 -2.18743164 20.11352539 -2.86743164 20.11352539 C-2.89443594 21.57175751 -2.91382951 23.03013214 -2.92993164 24.48852539 C-2.9415332 25.30063477 -2.95313477 26.11274414 -2.96508789 26.94946289 C-3.01209499 29.16289681 -3.01209499 29.16289681 -1.86743164 31.11352539 C-3.45066852 31.14071839 -5.03404226 31.16000845 -6.61743164 31.17602539 C-7.94000977 31.19342773 -7.94000977 31.19342773 -9.28930664 31.21118164 C-11.64931544 31.12178737 -13.61241688 30.7826536 -15.86743164 30.11352539 C-15.86743164 29.12352539 -15.86743164 28.13352539 -15.86743164 27.11352539 C-16.52743164 27.11352539 -17.18743164 27.11352539 -17.86743164 27.11352539 C-17.86743164 26.12352539 -17.86743164 25.13352539 -17.86743164 24.11352539 C-15.88743164 24.44352539 -13.90743164 24.77352539 -11.86743164 25.11352539 C-11.20743164 24.12352539 -10.54743164 23.13352539 -9.86743164 22.11352539 C-11.18743164 20.79352539 -12.50743164 19.47352539 -13.86743164 18.11352539 C-12.87743164 18.11352539 -11.88743164 18.11352539 -10.86743164 18.11352539 C-11.19743164 16.79352539 -11.52743164 15.47352539 -11.86743164 14.11352539 C-12.52743164 14.11352539 -13.18743164 14.11352539 -13.86743164 14.11352539 C-14.19743164 13.12352539 -14.52743164 12.13352539 -14.86743164 11.11352539 C-15.19743164 11.11352539 -15.52743164 11.11352539 -15.86743164 11.11352539 C-16.52743164 12.76352539 -17.18743164 14.41352539 -17.86743164 16.11352539 C-19.18743164 15.78352539 -20.50743164 15.45352539 -21.86743164 15.11352539 C-21.86743164 13.79352539 -21.86743164 12.47352539 -21.86743164 11.11352539 C-20.87743164 11.11352539 -19.88743164 11.11352539 -18.86743164 11.11352539 C-18.53743164 8.80352539 -18.20743164 6.49352539 -17.86743164 4.11352539 C-15.55743164 4.44352539 -13.24743164 4.77352539 -10.86743164 5.11352539 C-10.86743164 6.10352539 -10.86743164 7.09352539 -10.86743164 8.11352539 C-10.20743164 8.11352539 -9.54743164 8.11352539 -8.86743164 8.11352539 C-9.44327596 5.72788462 -10.08970759 3.44669755 -10.86743164 1.11352539 C-9.73305664 1.13415039 -8.59868164 1.15477539 -7.42993164 1.17602539 C-3.5595185 1.10812341 -3.61252687 0.14302469 0 0 Z " fill="#565C4F" transform="translate(55.867431640625,-0.113525390625)"/>
<path d="M0 0 C0.33 0 0.66 0 1 0 C1.55817738 5.06316147 2.10910024 10.12704842 2.65405273 15.19165039 C2.83936056 16.90506945 3.02646012 18.61829592 3.21557617 20.33129883 C4.31613333 30.31261852 5.18122166 40.25042216 5.64059448 50.28245544 C6.02358721 58.3021086 6.97304095 66.22512766 7.98242188 74.1875 C8.89922883 81.82906342 9.16322002 89.30579255 9 97 C8.01 96.67 7.02 96.34 6 96 C5.01 98.64 4.02 101.28 3 104 C2.67 104 2.34 104 2 104 C1.93941406 102.89140625 1.87882813 101.7828125 1.81640625 100.640625 C1.73197049 99.1770718 1.64732401 97.71353075 1.5625 96.25 C1.52318359 95.52039063 1.48386719 94.79078125 1.44335938 94.0390625 C1.22411408 89.98734262 1.22411408 89.98734262 0.49879456 86.00578308 C-0.38122168 82.46700815 -0.36557353 78.80628553 -0.53515625 75.17578125 C-0.57813339 74.31494431 -0.62111053 73.45410736 -0.66539001 72.56718445 C-0.75547036 70.74581033 -0.84360427 68.92433906 -0.92993164 67.1027832 C-1.06120517 64.33975349 -1.19903014 61.57711081 -1.33789062 58.81445312 C-1.42487079 57.03908164 -1.51147129 55.26369151 -1.59765625 53.48828125 C-1.63826675 52.67232986 -1.67887726 51.85637848 -1.72071838 51.01570129 C-1.97064503 45.6711819 -2.03443691 40.35042587 -2 35 C-1.34 35 -0.68 35 0 35 C0 23.45 0 11.9 0 0 Z " fill="#414237" transform="translate(150,50)"/>
<path d="M0 0 C2.97 0.495 2.97 0.495 6 1 C6.9765625 7.0546875 6.9765625 7.0546875 7 9 C6.34 9.66 5.68 10.32 5 11 C2.9375 10.75 2.9375 10.75 1 10 C0.67 9.34 0.34 8.68 0 8 C-0.66 8 -1.32 8 -2 8 C-2 9.32 -2 10.64 -2 12 C-2 14.66666667 -2 17.33333333 -2 20 C-1.34 20 -0.68 20 0 20 C0.33 18.68 0.66 17.36 1 16 C1.66 16.33 2.32 16.66 3 17 C2.67 15.68 2.34 14.36 2 13 C3.98 12.67 5.96 12.34 8 12 C8.33 9.69 8.66 7.38 9 5 C9.66 5.33 10.32 5.66 11 6 C10.67 6.66 10.34 7.32 10 8 C10.99 8 11.98 8 13 8 C13 7.01 13 6.02 13 5 C14.65 5 16.3 5 18 5 C18 6.32 18 7.64 18 9 C18.66 9 19.32 9 20 9 C20.33 8.34 20.66 7.68 21 7 C21.66 7 22.32 7 23 7 C23.66 7.99 24.32 8.98 25 10 C25.969375 10 26.93875 10 27.9375 10 C31 10 31 10 32.875 11.5 C33.24625 11.995 33.6175 12.49 34 13 C33.67 13.99 33.34 14.98 33 16 C31.35 16.33 29.7 16.66 28 17 C28 16.01 28 15.02 28 14 C27.01 14.33 26.02 14.66 25 15 C25 15.66 25 16.32 25 17 C24.01 17 23.02 17 22 17 C22.33 15.35 22.66 13.7 23 12 C20.14007365 12.50469288 17.5595727 13.15544493 14.8125 14.125 C12 15 12 15 10 14 C9.67 14.66 9.34 15.32 9 16 C10.32 16.33 11.64 16.66 13 17 C12.125 22.75 12.125 22.75 11 25 C11.99 25.33 12.98 25.66 14 26 C13.67 26.66 13.34 27.32 13 28 C11.35 28 9.7 28 8 28 C8 27.34 8 26.68 8 26 C8.66 26 9.32 26 10 26 C10 25.34 10 24.68 10 24 C8.02 23.34 6.04 22.68 4 22 C4 21.34 4 20.68 4 20 C3.34 20 2.68 20 2 20 C0.87483915 21.83284443 0.87483915 21.83284443 0 24 C0.33 24.99 0.66 25.98 1 27 C-1.75 27.3125 -1.75 27.3125 -5 27 C-7.375 24.625 -7.375 24.625 -9 22 C-9 21.34 -9 20.68 -9 20 C-9.66 20 -10.32 20 -11 20 C-11 19.01 -11 18.02 -11 17 C-9.02 16.34 -7.04 15.68 -5 15 C-5.350625 14.401875 -5.70125 13.80375 -6.0625 13.1875 C-7 11 -7 11 -6 8 C-6.99 7.67 -7.98 7.34 -9 7 C-8.34 6.01 -7.68 5.02 -7 4 C-6.34 4 -5.68 4 -5 4 C-5 3.34 -5 2.68 -5 2 C-3.35 2 -1.7 2 0 2 C0 1.34 0 0.68 0 0 Z " fill="#444638" transform="translate(78,9)"/>
<path d="M0 0 C0.66 0 1.32 0 2 0 C2.5775 0.969375 3.155 1.93875 3.75 2.9375 C5.72054161 6.28740528 5.72054161 6.28740528 9.25 6.875 C10.61125 6.936875 10.61125 6.936875 12 7 C12 6.34 12 5.68 12 5 C11.34 4.67 10.68 4.34 10 4 C11.375 2 11.375 2 13 0 C13.66 0 14.32 0 15 0 C15 0.66 15 1.32 15 2 C16.98 2.66 18.96 3.32 21 4 C21 4.66 21 5.32 21 6 C20.34 6 19.68 6 19 6 C19 6.66 19 7.32 19 8 C20.32 8.33 21.64 8.66 23 9 C22.01 9.66 21.02 10.32 20 11 C20.495 11.99 20.495 11.99 21 13 C20.34 13 19.68 13 19 13 C19 13.66 19 14.32 19 15 C20.32 15 21.64 15 23 15 C23.33 14.34 23.66 13.68 24 13 C25.74627478 15.61941217 26.38722388 17.03824877 27 20 C24.42786866 21.61949011 23.32330841 22.04408751 20.25 21.625 C19.5075 21.41875 18.765 21.2125 18 21 C18.33 20.01 18.66 19.02 19 18 C18.01 18 17.02 18 16 18 C15.566875 19.2065625 15.566875 19.2065625 15.125 20.4375 C14 23 14 23 12 24 C12 23.01 12 22.02 12 21 C11.01 21 10.02 21 9 21 C8.67 20.34 8.34 19.68 8 19 C7.01 18.67 6.02 18.34 5 18 C5 17.34 5 16.68 5 16 C3.68 16.99 2.36 17.98 1 19 C0.67 18.34 0.34 17.68 0 17 C-3.62885324 16.84850702 -3.62885324 16.84850702 -7 18 C-7 17.34 -7 16.68 -7 16 C-7.45375 16.495 -7.9075 16.99 -8.375 17.5 C-10 19 -10 19 -12 19 C-10.9024777 16.00675737 -10.32317108 15.15389099 -7.375 13.75 C-6.59125 13.5025 -5.8075 13.255 -5 13 C-5 13.66 -5 14.32 -5 15 C-4.01 15 -3.02 15 -2 15 C-2 14.34 -2 13.68 -2 13 C-3.32 12.67 -4.64 12.34 -6 12 C-7.3370565 4.58541393 -7.3370565 4.58541393 -5.8125 1.9375 C-4 1 -4 1 -1.8125 1.3125 C-1.214375 1.539375 -0.61625 1.76625 0 2 C0 1.34 0 0.68 0 0 Z " fill="#2F2D1F" transform="translate(67,29)"/>
<path d="M0 0 C0.66 0.33 1.32 0.66 2 1 C1.67 2.65 1.34 4.3 1 6 C-0.65 6 -2.3 6 -4 6 C-3.34 8.64 -2.68 11.28 -2 14 C-0.68 14.33 0.64 14.66 2 15 C1.95875 13.783125 1.9175 12.56625 1.875 11.3125 C1.875 7.78407544 2.28045277 5.15250325 4 2 C4.66 1.67 5.32 1.34 6 1 C7.04216876 10.80195136 7.33302495 20.5891612 7.60546875 30.4375 C7.78422466 36.31795291 8.04069651 42.11325786 8.77246094 47.95117188 C9.17792618 51.60209928 9.24461215 55.26839346 9.375 58.9375 C9.71114027 67.10157503 10.55078002 75.14390926 11.5625 83.25 C12.76337464 92.91142172 13.39697206 102.26683313 13 112 C12.67 112 12.34 112 12 112 C9.90641208 92.05453725 7.87336869 72.13292228 6.65332031 52.11230469 C6.03399767 42.03780289 5.08075024 32.03553792 4 22 C3.67 31.24 3.34 40.48 3 50 C2.34 50 1.68 50 1 50 C1 52.64 1 55.28 1 58 C-0.8125 57.9375 -0.8125 57.9375 -3 57 C-4.81256426 53.4420035 -6.21573816 49.92130921 -7 46 C-6.01 46.66 -5.02 47.32 -4 48 C-4 48.66 -4 49.32 -4 50 C-3.34 50 -2.68 50 -2 50 C-2 48.35 -2 46.7 -2 45 C-2.66 45 -3.32 45 -4 45 C-4 42.36 -4 39.72 -4 37 C-0.19377191 39.94117625 -0.52978095 41.64576667 1 47 C1.33 37.1 1.66 27.2 2 17 C-1.12474627 18.63473516 -1.12474627 18.63473516 -1.6875 21.125 C-1.790625 21.74375 -1.89375 22.3625 -2 23 C-3.65 23 -5.3 23 -7 23 C-7.33 16.73 -7.66 10.46 -8 4 C-9.65 3.67 -11.3 3.34 -13 3 C-12.67 2.34 -12.34 1.68 -12 1 C-9.36 1.33 -6.72 1.66 -4 2 C-4 2.66 -4 3.32 -4 4 C-2.68 4 -1.36 4 0 4 C0 2.68 0 1.36 0 0 Z " fill="#414337" transform="translate(147,35)"/>
<path d="M0 0 C2.12438339 -0.08078641 4.2496323 -0.13909141 6.375 -0.1875 C7.55835937 -0.22230469 8.74171875 -0.25710937 9.9609375 -0.29296875 C11.46527344 -0.14794922 11.46527344 -0.14794922 13 0 C13.66 0.99 14.32 1.98 15 3 C13.68 3.33 12.36 3.66 11 4 C11 4.66 11 5.32 11 6 C11.66 6.33 12.32 6.66 13 7 C12.34 8.65 11.68 10.3 11 12 C10.34 12 9.68 12 9 12 C8.67 13.65 8.34 15.3 8 17 C7.01 16.67 6.02 16.34 5 16 C4.67 16.99 4.34 17.98 4 19 C3.01 18.67 2.02 18.34 1 18 C1.33 16.68 1.66 15.36 2 14 C0.35 14 -1.3 14 -3 14 C-3 14.99 -3 15.98 -3 17 C-3.99 17 -4.98 17 -6 17 C-6.33 16.67 -6.66 16.34 -7 16 C-7.061875 16.78375 -7.12375 17.5675 -7.1875 18.375 C-7.455625 19.24125 -7.72375 20.1075 -8 21 C-10.5625 22.3125 -10.5625 22.3125 -13 23 C-13 24.32 -13 25.64 -13 27 C-13.66 26.67 -14.32 26.34 -15 26 C-15.33 26.99 -15.66 27.98 -16 29 C-16.66 29 -17.32 29 -18 29 C-18.85743651 24.60563789 -19.08948558 20.47427924 -19 16 C-19.66 15.67 -20.32 15.34 -21 15 C-20.01 14.67 -19.02 14.34 -18 14 C-18 14.99 -18 15.98 -18 17 C-17.01 16.67 -16.02 16.34 -15 16 C-14.67 16.99 -14.34 17.98 -14 19 C-12.68 18.67 -11.36 18.34 -10 18 C-10.25561323 15.6568787 -10.59270772 13.32156597 -11 11 C-11.66 10.67 -12.32 10.34 -13 10 C-13.33 10.99 -13.66 11.98 -14 13 C-14 11.68 -14 10.36 -14 9 C-10.98968256 8.06576355 -10.13349732 7.95550089 -7 9 C-4.66993089 9.35543427 -2.33672984 9.6913753 0 10 C0.33 8.35 0.66 6.7 1 5 C1.66 5 2.32 5 3 5 C3 7.31 3 9.62 3 12 C3.66 12.33 4.32 12.66 5 13 C5.33 10.03 5.66 7.06 6 4 C3.03 3.505 3.03 3.505 0 3 C0 2.01 0 1.02 0 0 Z " fill="#363726" transform="translate(94,0)"/>
<path d="M0 0 C15.18 0 30.36 0 46 0 C45.67 0.66 45.34 1.32 45 2 C42.69 1.67 40.38 1.34 38 1 C38.7734375 1.8971875 38.7734375 1.8971875 39.5625 2.8125 C40.036875 3.534375 40.51125 4.25625 41 5 C40.67 5.99 40.34 6.98 40 8 C39.34 8 38.68 8 38 8 C38 7.01 38 6.02 38 5 C35.69 4.67 33.38 4.34 31 4 C30.67 6.31 30.34 8.62 30 11 C29.01 11 28.02 11 27 11 C26.67 11.99 26.34 12.98 26 14 C25.67 14.66 25.34 15.32 25 16 C22.03 15.505 22.03 15.505 19 15 C19 14.34 19 13.68 19 13 C20.65 12.67 22.3 12.34 24 12 C24 11.34 24 10.68 24 10 C24 9.01 24 8.02 24 7 C22.8553125 7.061875 22.8553125 7.061875 21.6875 7.125 C19 7 19 7 16 5 C16 4.34 16 3.68 16 3 C14.02 3 12.04 3 10 3 C10 4.65 10 6.3 10 8 C9.01 8 8.02 8 7 8 C6.67 6.68 6.34 5.36 6 4 C4.35 3.67 2.7 3.34 1 3 C0.67 2.01 0.34 1.02 0 0 Z " fill="#3B3A2C" transform="translate(7,0)"/>
<path d="M0 0 C15.18 0 30.36 0 46 0 C46 0.66 46 1.32 46 2 C44.02 2 42.04 2 40 2 C38.52952664 5.91063224 38.52952664 5.91063224 38 10 C37.34 10 36.68 10 36 10 C35.67 10.99 35.34 11.98 35 13 C33.0625 12.25 33.0625 12.25 31 11 C30.25 8.875 30.25 8.875 30 7 C30.99 6.67 31.98 6.34 33 6 C34.21869929 3.49552484 34.21869929 3.49552484 35 1 C32.03 1.66 29.06 2.32 26 3 C25.67 4.32 25.34 5.64 25 7 C23.35 7 21.7 7 20 7 C20 6.34 20 5.68 20 5 C20.99 4.67 21.98 4.34 23 4 C20.36 3.67 17.72 3.34 15 3 C14.01 4.98 13.02 6.96 12 9 C10.68 9 9.36 9 8 9 C8 7.68 8 6.36 8 5 C7.38125 5.350625 6.7625 5.70125 6.125 6.0625 C5.42375 6.371875 4.7225 6.68125 4 7 C3.34 6.67 2.68 6.34 2 6 C2.185625 6.598125 2.37125 7.19625 2.5625 7.8125 C3 10 3 10 2 13 C0.02 13.33 -1.96 13.66 -4 14 C-4 13.34 -4 12.68 -4 12 C-3.34 12 -2.68 12 -2 12 C-1.20046862 8.71303767 -0.90341064 7.28976808 -2 4 C-1.01 3.34 -0.02 2.68 1 2 C0.67 1.34 0.34 0.68 0 0 Z " fill="#41402E" transform="translate(107,0)"/>
<path d="M0 0 C2.31 0.33 4.62 0.66 7 1 C7.020625 1.763125 7.04125 2.52625 7.0625 3.3125 C7.79660949 6.41389118 7.79660949 6.41389118 11.5625 7.8125 C12.696875 8.204375 13.83125 8.59625 15 9 C14.67 9.66 14.34 10.32 14 11 C13.34 11 12.68 11 12 11 C11.67 11.66 11.34 12.32 11 13 C12.98 13.66 14.96 14.32 17 15 C16.01 15.495 16.01 15.495 15 16 C14.9729957 17.45823212 14.95360213 18.91660675 14.9375 20.375 C14.92589844 21.18710937 14.91429688 21.99921875 14.90234375 22.8359375 C14.85533666 25.04937142 14.85533666 25.04937142 16 27 C14.41676312 27.027193 12.83338938 27.04648306 11.25 27.0625 C9.92742188 27.07990234 9.92742188 27.07990234 8.578125 27.09765625 C6.2181162 27.00826198 4.25501476 26.66912821 2 26 C2 25.01 2 24.02 2 23 C1.34 23 0.68 23 0 23 C0 22.01 0 21.02 0 20 C1.98 20.33 3.96 20.66 6 21 C6.66 20.01 7.32 19.02 8 18 C6.68 16.68 5.36 15.36 4 14 C4.99 14 5.98 14 7 14 C6.67 12.68 6.34 11.36 6 10 C5.34 10 4.68 10 4 10 C3.67 9.01 3.34 8.02 3 7 C2.67 7 2.34 7 2 7 C1.34 8.65 0.68 10.3 0 12 C-1.32 11.67 -2.64 11.34 -4 11 C-4 9.68 -4 8.36 -4 7 C-3.01 7 -2.02 7 -1 7 C-0.67 4.69 -0.34 2.38 0 0 Z " fill="#3E4031" transform="translate(38,4)"/>
<path d="M0 0 C1.32 0 2.64 0 4 0 C5.5778125 -0.0309375 5.5778125 -0.0309375 7.1875 -0.0625 C10 0 10 0 11 1 C11.99 0.67 12.98 0.34 14 0 C14 0.66 14 1.32 14 2 C15.32 2.33 16.64 2.66 18 3 C18 3.66 18 4.32 18 5 C18.99 5 19.98 5 21 5 C21.33 6.98 21.66 8.96 22 11 C20.68 11.33 19.36 11.66 18 12 C19.44197868 13.44197868 21.17691571 14.11786244 23 15 C22.34 15 21.68 15 21 15 C21.33 15.99 21.66 16.98 22 18 C21.0925 17.814375 20.185 17.62875 19.25 17.4375 C16.31685676 17.04265379 14.7355343 17.05308428 12 18 C11.67 17.34 11.34 16.68 11 16 C10.34 16.99 9.68 17.98 9 19 C9.66 19 10.32 19 11 19 C11 19.66 11 20.32 11 21 C9.35 21 7.7 21 6 21 C5.34 19.68 4.68 18.36 4 17 C3.34 17 2.68 17 2 17 C2 16.34 2 15.68 2 15 C4.64 14.67 7.28 14.34 10 14 C10 13.34 10 12.68 10 12 C11.32 12 12.64 12 14 12 C14 10.02 14 8.04 14 6 C11.03 5.505 11.03 5.505 8 5 C7.67 4.01 7.34 3.02 7 2 C5.68 2.33 4.36 2.66 3 3 C3.33 4.65 3.66 6.3 4 8 C3.608125 7.525625 3.21625 7.05125 2.8125 6.5625 C1.06187759 4.79226298 1.06187759 4.79226298 -1.5625 4.5 C-4 4 -4 4 -6 1 C-5.01 1 -4.02 1 -3 1 C-3 1.66 -3 2.32 -3 3 C-2.34 3 -1.68 3 -1 3 C-0.67 2.01 -0.34 1.02 0 0 Z M-0.4375 6.9375 C0.7690625 6.9684375 0.7690625 6.9684375 2 7 C1.67 8.65 1.34 10.3 1 12 C-0.32 12 -1.64 12 -3 12 C-3.5625 10.0625 -3.5625 10.0625 -4 8 C-3 7 -3 7 -0.4375 6.9375 Z " fill="#424335" transform="translate(58,45)"/>
<path d="M0 0 C0.28875 0.639375 0.5775 1.27875 0.875 1.9375 C1.82823451 4.15206079 1.82823451 4.15206079 4 5 C4.73075648 7.3140622 5.40138258 9.64828869 6 12 C8.97 11.34 11.94 10.68 15 10 C15.33 10.99 15.66 11.98 16 13 C17.65 13 19.3 13 21 13 C21 12.01 21 11.02 21 10 C21.66 10 22.32 10 23 10 C23 10.66 23 11.32 23 12 C23.66 12.33 24.32 12.66 25 13 C24.01 13 23.02 13 22 13 C22.33 14.32 22.66 15.64 23 17 C22.01 17 21.02 17 20 17 C19.87625 17.598125 19.7525 18.19625 19.625 18.8125 C19 21 19 21 17 24 C13.875 24.1875 13.875 24.1875 11 24 C11 23.34 11 22.68 11 22 C12.32 21.67 13.64 21.34 15 21 C15 20.34 15 19.68 15 19 C14.01 19 13.02 19 12 19 C11.731875 18.360625 11.46375 17.72125 11.1875 17.0625 C10.11332248 14.66868314 10.11332248 14.66868314 7 14 C6.34 16.31 5.68 18.62 5 21 C4.34 20.67 3.68 20.34 3 20 C3 19.01 3 18.02 3 17 C0.69 16.67 -1.62 16.34 -4 16 C-4 15.34 -4 14.68 -4 14 C-2.02 13.67 -0.04 13.34 2 13 C1.80528889 11.05000871 1.80528889 11.05000871 1 9 C-0.9837767 7.71563266 -0.9837767 7.71563266 -3 7 C-3 7.66 -3 8.32 -3 9 C-3.66 9 -4.32 9 -5 9 C-5 6.69 -5 4.38 -5 2 C-3.68 2.33 -2.36 2.66 -1 3 C-0.67 2.01 -0.34 1.02 0 0 Z " fill="#565B4E" transform="translate(97,23)"/>
<path d="M0 0 C0.33 0 0.66 0 1 0 C2.37572027 12.63299451 3.41969447 25.23276557 4.00537109 37.92724609 C4.12500456 40.50009813 4.2553456 43.07225481 4.38671875 45.64453125 C4.96458146 57.43662082 5.09937391 69.19501089 5 81 C4.67 81 4.34 81 4 81 C2.34055725 68.59862873 1.7503955 56.50795873 2 44 C0.68 44 -0.64 44 -2 44 C-2 41.03 -2 38.06 -2 35 C-1.34 35 -0.68 35 0 35 C0 23.45 0 11.9 0 0 Z " fill="#4B534D" transform="translate(150,50)"/>
<path d="M0 0 C1.62623343 5.80797654 2.11889356 11.70288567 2.28125 17.7109375 C2.31863281 18.95617187 2.35601562 20.20140625 2.39453125 21.484375 C2.42933594 22.76828125 2.46414062 24.0521875 2.5 25.375 C2.78327099 36.19242878 2.78327099 36.19242878 3.77246094 46.95996094 C4.17932223 50.60774305 4.24471851 54.27138656 4.375 57.9375 C4.71114027 66.10157503 5.55078002 74.14390926 6.5625 82.25 C7.76337464 91.91142172 8.39697206 101.26683313 8 111 C7.67 111 7.34 111 7 111 C4.92596593 91.24082539 2.91018407 71.51025747 1.72363281 51.67480469 C0.92092345 38.73512981 -0.50191885 25.87629268 -2 13 C-2.33 13 -2.66 13 -3 13 C-3.17791204 8.46324303 -3.0461125 5.092225 -1 1 C-0.67 0.67 -0.34 0.34 0 0 Z " fill="#3B3D35" transform="translate(152,36)"/>
<path d="M0 0 C7.42857143 1 7.42857143 1 11 2 C10.67 2.99 10.34 3.98 10 5 C9.34 5 8.68 5 8 5 C8 5.66 8 6.32 8 7 C7.01 7 6.02 7 5 7 C5.99 8.485 5.99 8.485 7 10 C7.78375 9.34 8.5675 8.68 9.375 8 C12 6 12 6 14 6 C13.67 7.98 13.34 9.96 13 12 C10.69 12 8.38 12 6 12 C6 12.66 6 13.32 6 14 C4.02 14 2.04 14 0 14 C0 12.68 0 11.36 0 10 C-1.65 10 -3.3 10 -5 10 C-5 10.66 -5 11.32 -5 12 C-6.25 13.625 -6.25 13.625 -8 15 C-9.32 15 -10.64 15 -12 15 C-12 13.68 -12 12.36 -12 11 C-10.68 10.67 -9.36 10.34 -8 10 C-7.67 8.68 -7.34 7.36 -7 6 C-6.4225 5.87625 -5.845 5.7525 -5.25 5.625 C-2.97664233 4.99351176 -1.0746471 4.11141809 1 3 C0.67 2.01 0.34 1.02 0 0 Z " fill="#3A3725" transform="translate(126,9)"/>
<path d="M0 0 C5.62732811 1.12546562 5.62732811 1.12546562 8.55078125 4.125 C9.16630859 4.74890625 9.78183594 5.3728125 10.41601562 6.015625 C11.04185547 6.67046875 11.66769531 7.3253125 12.3125 8 C12.95767578 8.65484375 13.60285156 9.3096875 14.26757812 9.984375 C19 14.83197751 19 14.83197751 19 16 C14.38 16 9.76 16 5 16 C4.67 15.01 4.34 14.02 4 13 C2.68 12.34 1.36 11.68 0 11 C0 7.37 0 3.74 0 0 Z " fill="#332F20" transform="translate(156,184)"/>
<path d="M0 0 C2.97 0 5.94 0 9 0 C9 0.99 9 1.98 9 3 C9.969375 2.979375 10.93875 2.95875 11.9375 2.9375 C15 3 15 3 16 4 C15.30232558 10.39534884 15.30232558 10.39534884 14 13 C13.01 12.67 12.02 12.34 11 12 C11.33 9.69 11.66 7.38 12 5 C11.01 5.495 11.01 5.495 10 6 C9.34786708 8.02463255 9.34786708 8.02463255 9 10 C7.741875 10.04125 6.48375 10.0825 5.1875 10.125 C4.47980469 10.14820313 3.77210937 10.17140625 3.04296875 10.1953125 C1 10 1 10 -2 8 C-2 7.34 -2 6.68 -2 6 C-1.34 6 -0.68 6 0 6 C0 4.02 0 2.04 0 0 Z " fill="#3F3F2D" transform="translate(85,0)"/>
<path d="M0 0 C0.66 0.33 1.32 0.66 2 1 C2 1.99 2 2.98 2 4 C4.31 4 6.62 4 9 4 C8.67 6.31 8.34 8.62 8 11 C6.68 11 5.36 11 4 11 C4 11.66 4 12.32 4 13 C1.75 14.1875 1.75 14.1875 -1 15 C-3.3125 13.625 -3.3125 13.625 -5 12 C-4.46274105 8.62294375 -3.88935377 5.303314 -3 2 C-2.01 2 -1.02 2 0 2 C0 1.34 0 0.68 0 0 Z " fill="#2C291C" transform="translate(64,46)"/>
<path d="M0 0 C0.33 0.66 0.66 1.32 1 2 C1.66 2 2.32 2 3 2 C3.33 2.66 3.66 3.32 4 4 C6.11846285 4.68729254 6.11846285 4.68729254 8.5625 5.125 C9.38878906 5.29257813 10.21507813 5.46015625 11.06640625 5.6328125 C11.70449219 5.75398437 12.34257813 5.87515625 13 6 C12.67 6.66 12.34 7.32 12 8 C9.67843403 8.40729228 7.3431213 8.74438677 5 9 C5 9.66 5 10.32 5 11 C4.01 11.33 3.02 11.66 2 12 C1.67 11.01 1.34 10.02 1 9 C0.01 9 -0.98 9 -2 9 C-2 9.66 -2 10.32 -2 11 C-2.66 11 -3.32 11 -4 11 C-4 10.34 -4 9.68 -4 9 C-4.99 8.67 -5.98 8.34 -7 8 C-7 6.68 -7 5.36 -7 4 C-7.33 3.01 -7.66 2.02 -8 1 C-6.865625 1.020625 -5.73125 1.04125 -4.5625 1.0625 C-1.18424326 1.41577477 -1.18424326 1.41577477 0 0 Z " fill="#4C4F42" transform="translate(53,0)"/>
<path d="M0 0 C2.97 0.33 5.94 0.66 9 1 C9 1.66 9 2.32 9 3 C10.65 3.33 12.3 3.66 14 4 C14 4.66 14 5.32 14 6 C16.97065509 5.65772428 16.97065509 5.65772428 20 5 C20.33 4.34 20.66 3.68 21 3 C21.66 4.32 22.32 5.64 23 7 C23.66 7 24.32 7 25 7 C25 7.66 25 8.32 25 9 C18.07 9 11.14 9 4 9 C4 8.34 4 7.68 4 7 C4.66 7 5.32 7 6 7 C4.06745228 4.9754262 2.36841312 3.57894208 0 2 C0 1.34 0 0.68 0 0 Z " fill="#555443" transform="translate(107,191)"/>
<path d="M0 0 C0 0.66 0 1.32 0 2 C-1.32 2 -2.64 2 -4 2 C-3.01 3.485 -3.01 3.485 -2 5 C-2 5.99 -2 6.98 -2 8 C-4.31 8 -6.62 8 -9 8 C-9 8.66 -9 9.32 -9 10 C-6.03 10.495 -6.03 10.495 -3 11 C-3 11.99 -3 12.98 -3 14 C-2.01 14 -1.02 14 0 14 C0 14.66 0 15.32 0 16 C-4.28691958 16.16488152 -7.29749162 16.24795152 -11 14 C-11.99 13.67 -12.98 13.34 -14 13 C-14 12.34 -14 11.68 -14 11 C-14.99 11 -15.98 11 -17 11 C-17 10.34 -17 9.68 -17 9 C-14.69 9 -12.38 9 -10 9 C-10 8.34 -10 7.68 -10 7 C-10.99 6.67 -11.98 6.34 -13 6 C-12.195625 5.731875 -11.39125 5.46375 -10.5625 5.1875 C-9.716875 4.795625 -8.87125 4.40375 -8 4 C-7.67 3.01 -7.34 2.02 -7 1 C-4 0 -4 0 0 0 Z " fill="#414032" transform="translate(51,34)"/>
<path d="M0 0 C1.32 0 2.64 0 4 0 C4.33 0.99 4.66 1.98 5 3 C5.99 2.67 6.98 2.34 8 2 C8 2.66 8 3.32 8 4 C8.99 4 9.98 4 11 4 C11 4.66 11 5.32 11 6 C9.02 6 7.04 6 5 6 C5 9.3 5 12.6 5 16 C6.32 16.33 7.64 16.66 9 17 C9 17.66 9 18.32 9 19 C8.01 19 7.02 19 6 19 C6 18.34 6 17.68 6 17 C3.69 18.32 1.38 19.64 -1 21 C-1.66 20.01 -2.32 19.02 -3 18 C-3.66 18 -4.32 18 -5 18 C-4.67 15.69 -4.34 13.38 -4 11 C-3.34 11 -2.68 11 -2 11 C-1.87625 11.639375 -1.7525 12.27875 -1.625 12.9375 C-1.41875 13.618125 -1.2125 14.29875 -1 15 C-0.34 15.33 0.32 15.66 1 16 C1 15.34 1 14.68 1 14 C0.34 14 -0.32 14 -1 14 C-0.34 11.69 0.32 9.38 1 7 C1.99 7 2.98 7 4 7 C3.67 5.02 3.34 3.04 3 1 C2.01 0.67 1.02 0.34 0 0 Z " fill="#403E30" transform="translate(56,25)"/>
<path d="M0 0 C8.58 0 17.16 0 26 0 C25.67 0.66 25.34 1.32 25 2 C22.69 1.67 20.38 1.34 18 1 C18.7734375 1.8971875 18.7734375 1.8971875 19.5625 2.8125 C20.036875 3.534375 20.51125 4.25625 21 5 C20.67 5.99 20.34 6.98 20 8 C19.34 8 18.68 8 18 8 C18 7.01 18 6.02 18 5 C16.081875 5.0309375 16.081875 5.0309375 14.125 5.0625 C10.25 5.125 10.25 5.125 8 4 C8 4.66 8 5.32 8 6 C5.69 5.67 3.38 5.34 1 5 C0.67 3.35 0.34 1.7 0 0 Z " fill="#2E2A1E" transform="translate(27,0)"/>
<path d="M0 0 C0.66 0.33 1.32 0.66 2 1 C1.67 2.65 1.34 4.3 1 6 C-0.65 6 -2.3 6 -4 6 C-3.67 6.99 -3.34 7.98 -3 9 C-2.93029948 11.39490986 -2.91551997 13.79167691 -2.9375 16.1875 C-2.94652344 17.45980469 -2.95554688 18.73210938 -2.96484375 20.04296875 C-2.97644531 21.01878906 -2.98804688 21.99460937 -3 23 C-4.32 22.67 -5.64 22.34 -7 22 C-7.33 16.06 -7.66 10.12 -8 4 C-9.65 3.67 -11.3 3.34 -13 3 C-12.67 2.34 -12.34 1.68 -12 1 C-9.36 1.33 -6.72 1.66 -4 2 C-4 2.66 -4 3.32 -4 4 C-2.68 4 -1.36 4 0 4 C0 2.68 0 1.36 0 0 Z " fill="#46473B" transform="translate(147,35)"/>
<path d="M0 0 C0.33 0 0.66 0 1 0 C1.05534912 0.84594727 1.11069824 1.69189453 1.16772461 2.56347656 C1.3774956 5.76177471 1.58822442 8.96000805 1.79956055 12.15820312 C1.89010182 13.53122552 1.98028294 14.90427172 2.07006836 16.27734375 C2.50472823 22.92108349 2.94904855 29.55765202 3.5625 36.1875 C4.09323557 42.38063512 4.11235032 48.53788267 4.0625 54.75 C4.05798828 55.84054688 4.05347656 56.93109375 4.04882812 58.0546875 C4.0372119 60.70318616 4.02088168 63.35156101 4 66 C3.01 65.67 2.02 65.34 1 65 C1.00523682 64.14994385 1.01047363 63.2998877 1.01586914 62.42407227 C1.16212934 41.60978753 1.16212934 41.60978753 0.22265625 20.82421875 C-0.18121509 13.88755129 -0.07823479 6.94551067 0 0 Z " fill="#434D4A" transform="translate(153,77)"/>
<path d="M0 0 C-1.32 1.65 -2.64 3.3 -4 5 C-1.69 4.34 0.62 3.68 3 3 C3 3.66 3 4.32 3 5 C3.99 5.33 4.98 5.66 6 6 C6 7.98 6 9.96 6 12 C5.360625 12.12375 4.72125 12.2475 4.0625 12.375 C3.381875 12.58125 2.70125 12.7875 2 13 C1.67 13.66 1.34 14.32 1 15 C0.34 15 -0.32 15 -1 15 C-1 13.02 -1 11.04 -1 9 C-2.32 9 -3.64 9 -5 9 C-5.33 7.02 -5.66 5.04 -6 3 C-6.66 3 -7.32 3 -8 3 C-8.33 3.99 -8.66 4.98 -9 6 C-9.66 5.67 -10.32 5.34 -11 5 C-9.23723362 2.06205603 -8.14450048 1.06192878 -4.9375 -0.3125 C-2 -1 -2 -1 0 0 Z " fill="#434335" transform="translate(107,45)"/>
<path d="M0 0 C0.33 0.99 0.66 1.98 1 3 C3.31 3.33 5.62 3.66 8 4 C7.67 5.65 7.34 7.3 7 9 C6.21625 9.144375 5.4325 9.28875 4.625 9.4375 C2.03578982 9.87798925 2.03578982 9.87798925 0 11 C-2.1640625 10.22265625 -2.1640625 10.22265625 -4.625 9.0625 C-5.44226563 8.68222656 -6.25953125 8.30195313 -7.1015625 7.91015625 C-8.04128906 7.45962891 -8.04128906 7.45962891 -9 7 C-9 6.34 -9 5.68 -9 5 C-8.01 5 -7.02 5 -6 5 C-6 4.34 -6 3.68 -6 3 C-4.02 2.01 -2.04 1.02 0 0 Z " fill="#4B3421" transform="translate(182,130)"/>
<path d="M0 0 C0.66 0 1.32 0 2 0 C2.33 1.98 2.66 3.96 3 6 C3.33 4.35 3.66 2.7 4 1 C4.33 1 4.66 1 5 1 C7.24357112 15.57378549 7.13688477 30.29249165 7 45 C6.67 45 6.34 45 6 45 C4.34055725 32.59862873 3.7503955 20.50795873 4 8 C2.68 8 1.36 8 0 8 C0 5.36 0 2.72 0 0 Z " fill="#636F6D" transform="translate(148,86)"/>
<path d="M0 0 C2.12438339 -0.08078641 4.2496323 -0.13909141 6.375 -0.1875 C7.55835937 -0.22230469 8.74171875 -0.25710937 9.9609375 -0.29296875 C11.46527344 -0.14794922 11.46527344 -0.14794922 13 0 C13.66 0.99 14.32 1.98 15 3 C13.68 3.33 12.36 3.66 11 4 C11 4.66 11 5.32 11 6 C11.66 6.33 12.32 6.66 13 7 C12.34 8.65 11.68 10.3 11 12 C9.35 11.67 7.7 11.34 6 11 C6 8.69 6 6.38 6 4 C3.03 3.505 3.03 3.505 0 3 C0 2.01 0 1.02 0 0 Z " fill="#322F1F" transform="translate(94,0)"/>
<path d="M0 0 C2.64 0 5.28 0 8 0 C8.05399736 1.45792884 8.09279177 2.91642712 8.125 4.375 C8.14820313 5.18710938 8.17140625 5.99921875 8.1953125 6.8359375 C8 9 8 9 6 11 C2.875 10.625 2.875 10.625 0 10 C-1.2380014 6.42355152 -0.74926071 3.66305234 0 0 Z " fill="#3B3A2D" transform="translate(140,159)"/>
<path d="M0 0 C1.27617187 0.02320312 2.55234375 0.04640625 3.8671875 0.0703125 C5.78917969 0.09738281 5.78917969 0.09738281 7.75 0.125 C9.23113281 0.15980469 9.23113281 0.15980469 10.7421875 0.1953125 C10.7421875 0.8553125 10.7421875 1.5153125 10.7421875 2.1953125 C8.7621875 2.1953125 6.7821875 2.1953125 4.7421875 2.1953125 C3.27171414 6.10594474 3.27171414 6.10594474 2.7421875 10.1953125 C2.0821875 10.1953125 1.4221875 10.1953125 0.7421875 10.1953125 C0.4121875 11.1853125 0.0821875 12.1753125 -0.2578125 13.1953125 C-2.1953125 12.4453125 -2.1953125 12.4453125 -4.2578125 11.1953125 C-5.0078125 9.0703125 -5.0078125 9.0703125 -5.2578125 7.1953125 C-4.2678125 6.8653125 -3.2778125 6.5353125 -2.2578125 6.1953125 C-1.03911321 3.69083734 -1.03911321 3.69083734 -0.2578125 1.1953125 C-1.9078125 1.5253125 -3.5578125 1.8553125 -5.2578125 2.1953125 C-3.2578125 0.1953125 -3.2578125 0.1953125 0 0 Z " fill="#3F3D2A" transform="translate(142.2578125,-0.1953125)"/>
<path d="M0 0 C2.97 0.495 2.97 0.495 6 1 C6 1.66 6 2.32 6 3 C7.32 3 8.64 3 10 3 C10 3.66 10 4.32 10 5 C9.01 5.495 9.01 5.495 8 6 C7.525625 6.804375 7.05125 7.60875 6.5625 8.4375 C5 11 5 11 2 13 C1.67 10.69 1.34 8.38 1 6 C0.34 6 -0.32 6 -1 6 C-0.67 4.02 -0.34 2.04 0 0 Z " fill="#7E6A5A" transform="translate(107,94)"/>
<path d="M0 0 C1.32 0 2.64 0 4 0 C4.6875 1.8125 4.6875 1.8125 5 4 C3.75 5.75 3.75 5.75 2 7 C1.01 7 0.02 7 -1 7 C-1 7.66 -1 8.32 -1 9 C-1.66 9.66 -2.32 10.32 -3 11 C-6.625 10.625 -6.625 10.625 -10 10 C-9.67 9.34 -9.34 8.68 -9 8 C-7.68 8 -6.36 8 -5 8 C-5.33 7.01 -5.66 6.02 -6 5 C-5.5625 2.8125 -5.5625 2.8125 -5 1 C-3.35 1.33 -1.7 1.66 0 2 C0 1.34 0 0.68 0 0 Z " fill="#373628" transform="translate(118,49)"/>
<path d="M0 0 C0.99 0.33 1.98 0.66 3 1 C2.979375 1.928125 2.95875 2.85625 2.9375 3.8125 C2.84230396 7.02286011 2.84230396 7.02286011 4 10 C3.0625 13.1875 3.0625 13.1875 2 16 C-0.99324263 14.9024777 -1.84610901 14.32317108 -3.25 11.375 C-3.4975 10.59125 -3.745 9.8075 -4 9 C-4.66 9 -5.32 9 -6 9 C-6 8.01 -6 7.02 -6 6 C-4.02 5.34 -2.04 4.68 0 4 C-0.33 3.34 -0.66 2.68 -1 2 C-0.67 1.34 -0.34 0.68 0 0 Z " fill="#3C3D2E" transform="translate(73,20)"/>
<path d="M0 0 C3.33333333 0 6.66666667 0 10 0 C10 1.32 10 2.64 10 4 C10.66 4.33 11.32 4.66 12 5 C10.68 5 9.36 5 8 5 C7.67 4.01 7.34 3.02 7 2 C5.68 2.33 4.36 2.66 3 3 C3.33 4.65 3.66 6.3 4 8 C3.608125 7.525625 3.21625 7.05125 2.8125 6.5625 C1.06187759 4.79226298 1.06187759 4.79226298 -1.5625 4.5 C-4 4 -4 4 -6 1 C-5.01 1 -4.02 1 -3 1 C-3 1.66 -3 2.32 -3 3 C-2.34 3 -1.68 3 -1 3 C-0.67 2.01 -0.34 1.02 0 0 Z M-0.4375 6.9375 C0.7690625 6.9684375 0.7690625 6.9684375 2 7 C1.67 8.65 1.34 10.3 1 12 C-0.32 12 -1.64 12 -3 12 C-3.5625 10.0625 -3.5625 10.0625 -4 8 C-3 7 -3 7 -0.4375 6.9375 Z " fill="#3F3D2F" transform="translate(58,45)"/>
<path d="M0 0 C0.66 0 1.32 0 2 0 C2.66 0.99 3.32 1.98 4 3 C4.969375 3 5.93875 3 6.9375 3 C10 3 10 3 11.875 4.5 C12.24625 4.995 12.6175 5.49 13 6 C12.67 6.99 12.34 7.98 12 9 C10.35 9.33 8.7 9.66 7 10 C7 9.01 7 8.02 7 7 C6.01 7.33 5.02 7.66 4 8 C4 8.66 4 9.32 4 10 C3.01 10 2.02 10 1 10 C1.33 8.35 1.66 6.7 2 5 C0.35 4.67 -1.3 4.34 -3 4 C-1.625 2 -1.625 2 0 0 Z " fill="#484636" transform="translate(99,16)"/>
<path d="M0 0 C0.99 0 1.98 0 3 0 C3.33 0.66 3.66 1.32 4 2 C4.99 2.66 5.98 3.32 7 4 C6 6 6 6 4 7 C4.66 8.98 5.32 10.96 6 13 C4.68 12.67 3.36 12.34 2 12 C2 12.66 2 13.32 2 14 C-1 13 -1 13 -2.25 11.3125 C-3.25821319 8.20384267 -2.80159824 6.13959312 -2 3 C-1.34 2.01 -0.68 1.02 0 0 Z " fill="#383728" transform="translate(83,47)"/>
<path d="M0 0 C0.66 0 1.32 0 2 0 C2 0.66 2 1.32 2 2 C2.66 2.33 3.32 2.66 4 3 C3.01 3 2.02 3 1 3 C1.33 4.32 1.66 5.64 2 7 C1.01 7 0.02 7 -1 7 C-1.12375 7.598125 -1.2475 8.19625 -1.375 8.8125 C-2 11 -2 11 -4 14 C-7.125 14.1875 -7.125 14.1875 -10 14 C-10 13.34 -10 12.68 -10 12 C-8.68 11.67 -7.36 11.34 -6 11 C-6 10.34 -6 9.68 -6 9 C-6.99 8.67 -7.98 8.34 -9 8 C-6.16569547 4.7457985 -4.31392226 3.4793247 0 3 C0 2.01 0 1.02 0 0 Z " fill="#3C3D2E" transform="translate(118,33)"/>
<path d="M0 0 C5.625 1.125 5.625 1.125 8.55078125 4.16015625 C9.16630859 4.78857422 9.78183594 5.41699219 10.41601562 6.06445312 C11.04185547 6.72380859 11.66769531 7.38316406 12.3125 8.0625 C12.95767578 8.72572266 13.60285156 9.38894531 14.26757812 10.07226562 C15.85447018 11.70617671 17.43126328 13.34868147 19 15 C16 15 16 15 14.1328125 13.390625 C13.47023437 12.68421875 12.80765625 11.9778125 12.125 11.25 C9.23447141 8.24214368 6.34626311 5.50969733 3 3 C3.33 6.3 3.66 9.6 4 13 C2.68 12.34 1.36 11.68 0 11 C0 7.37 0 3.74 0 0 Z " fill="#403E30" transform="translate(156,184)"/>
<path d="M0 0 C0.625 2.3125 0.625 2.3125 1 5 C0.01 6.485 0.01 6.485 -1 8 C-1.66 8 -2.32 8 -3 8 C-3.66 7.01 -4.32 6.02 -5 5 C-5.99 4.67 -6.98 4.34 -8 4 C-8.66 6.31 -9.32 8.62 -10 11 C-10.66 10.67 -11.32 10.34 -12 10 C-12 9.01 -12 8.02 -12 7 C-12.66 6.67 -13.32 6.34 -14 6 C-13.34 6 -12.68 6 -12 6 C-12 4.68 -12 3.36 -12 2 C-10.33333333 1.66666667 -8.66666667 1.33333333 -7 1 C-6.113125 0.814375 -5.22625 0.62875 -4.3125 0.4375 C-2 0 -2 0 0 0 Z " fill="#595F53" transform="translate(112,33)"/>
<path d="M0 0 C0.66 0 1.32 0 2 0 C2 0.66 2 1.32 2 2 C3.98 2.66 5.96 3.32 8 4 C8 4.66 8 5.32 8 6 C7.34 6 6.68 6 6 6 C6 6.66 6 7.32 6 8 C6.66 8.33 7.32 8.66 8 9 C7.01 9 6.02 9 5 9 C4.67 10.32 4.34 11.64 4 13 C3.01 13 2.02 13 1 13 C1 10.69 1 8.38 1 6 C-0.32 5.34 -1.64 4.68 -3 4 C-1.625 2 -1.625 2 0 0 Z " fill="#3A392A" transform="translate(80,29)"/>
<path d="M0 0 C2.97 0.495 2.97 0.495 6 1 C6 2.32 6 3.64 6 5 C4.02 5.33 2.04 5.66 0 6 C-0.33 7.32 -0.66 8.64 -1 10 C-2.32 10 -3.64 10 -5 10 C-5 10.66 -5 11.32 -5 12 C-6.25 13.625 -6.25 13.625 -8 15 C-9.32 15 -10.64 15 -12 15 C-12 13.68 -12 12.36 -12 11 C-10.68 10.67 -9.36 10.34 -8 10 C-7.67 8.68 -7.34 7.36 -7 6 C-6.4225 5.87625 -5.845 5.7525 -5.25 5.625 C-2.97664233 4.99351176 -1.0746471 4.11141809 1 3 C0.67 2.01 0.34 1.02 0 0 Z " fill="#4B4937" transform="translate(126,9)"/>
<path d="M0 0 C2.31 0 4.62 0 7 0 C8.25541557 3.76624671 7.37061958 5.37188934 6 9 C3.625 9.1875 3.625 9.1875 1 9 C-1 6 -1 6 -0.625 2.8125 C-0.41875 1.884375 -0.2125 0.95625 0 0 Z " fill="#403C35" transform="translate(96,83)"/>
<path d="M0 0 C2.31 0.33 4.62 0.66 7 1 C6.67 3.31 6.34 5.62 6 8 C4.68 7.67 3.36 7.34 2 7 C1.34 8.65 0.68 10.3 0 12 C-1.32 11.67 -2.64 11.34 -4 11 C-4 9.68 -4 8.36 -4 7 C-3.01 7 -2.02 7 -1 7 C-0.67 4.69 -0.34 2.38 0 0 Z " fill="#4B4F43" transform="translate(38,4)"/>
<path d="M0 0 C2.97 0.495 2.97 0.495 6 1 C5.67 2.65 5.34 4.3 5 6 C5.61875 6.2475 6.2375 6.495 6.875 6.75 C9.35068687 8.20628639 9.95125002 9.37812506 11 12 C8.125 11.75 8.125 11.75 5 11 C3.8125 9 3.8125 9 3 7 C2.01 6.67 1.02 6.34 0 6 C-0.33 6.66 -0.66 7.32 -1 8 C-1.66 6.68 -2.32 5.36 -3 4 C-3.99 4 -4.98 4 -6 4 C-5.34 3.34 -4.68 2.68 -4 2 C-2.68 2 -1.36 2 0 2 C0 1.34 0 0.68 0 0 Z " fill="#49493A" transform="translate(89,51)"/>
<path d="M0 0 C0.66 0 1.32 0 2 0 C4 3 4 3 3.625 5.1875 C3.41875 5.785625 3.2125 6.38375 3 7 C2.01 7 1.02 7 0 7 C-0.66 8.32 -1.32 9.64 -2 11 C-2.99 10.01 -3.98 9.02 -5 8 C-4.34 8 -3.68 8 -3 8 C-3 6.68 -3 5.36 -3 4 C-4.32 4.33 -5.64 4.66 -7 5 C-6.67 4.01 -6.34 3.02 -6 2 C-3 1 -3 1 0 2 C0 1.34 0 0.68 0 0 Z M2 7 C2.33 8.32 2.66 9.64 3 11 C2.01 11.495 2.01 11.495 1 12 C0.67 11.01 0.34 10.02 0 9 C0.66 8.34 1.32 7.68 2 7 Z " fill="#363325" transform="translate(67,29)"/>
<path d="M0 0 C0.33 0.99 0.66 1.98 1 3 C1.99 2.67 2.98 2.34 4 2 C7.07692308 7.29230769 7.07692308 7.29230769 6.6875 10.875 C6.460625 11.57625 6.23375 12.2775 6 13 C5.34 12.67 4.68 12.34 4 12 C3.67 12.99 3.34 13.98 3 15 C2.34 15 1.68 15 1 15 C0.14256349 10.60563789 -0.08948558 6.47427924 0 2 C-0.66 1.67 -1.32 1.34 -2 1 C-1.34 0.67 -0.68 0.34 0 0 Z " fill="#313123" transform="translate(75,14)"/>
<path d="M0 0 C3.96 0 7.92 0 12 0 C11.34 2.64 10.68 5.28 10 8 C9.01 8 8.02 8 7 8 C6.67 6.68 6.34 5.36 6 4 C4.35 3.67 2.7 3.34 1 3 C0.67 2.01 0.34 1.02 0 0 Z " fill="#3E3F33" transform="translate(7,0)"/>
<path d="M0 0 C2.97 0.33 5.94 0.66 9 1 C9 1.66 9 2.32 9 3 C10.65 3.33 12.3 3.66 14 4 C14.33 4.99 14.66 5.98 15 7 C13.56344146 7.08131463 12.1255517 7.13933559 10.6875 7.1875 C9.48673828 7.23970703 9.48673828 7.23970703 8.26171875 7.29296875 C5.46126503 6.93021568 4.81093296 6.09500088 3 4 C2.01 3.34 1.02 2.68 0 2 C0 1.34 0 0.68 0 0 Z " fill="#39382A" transform="translate(107,191)"/>
<path d="M0 0 C0.33 0 0.66 0 1 0 C1.33873468 4.47877512 1.67000737 8.95807297 2 13.4375 C2.09539062 14.69755859 2.19078125 15.95761719 2.2890625 17.25585938 C2.77173267 23.85809778 3.11525087 30.38027835 3 37 C2.67 37 2.34 37 2 37 C2 35.35 2 33.7 2 32 C1.34 32 0.68 32 0 32 C0 21.44 0 10.88 0 0 Z " fill="#4A5148" transform="translate(151,94)"/>
<path d="M0 0 C1.11375 0.4640625 1.11375 0.4640625 2.25 0.9375 C6.32357977 2.51138309 8.75691846 3.36384764 13 2 C13 2.66 13 3.32 13 4 C14.45833358 5.62514468 14.45833358 5.62514468 16 7 C14.41676312 7.027193 12.83338938 7.04648306 11.25 7.0625 C9.92742188 7.07990234 9.92742188 7.07990234 8.578125 7.09765625 C6.2181162 7.00826198 4.25501476 6.66912821 2 6 C2 5.01 2 4.02 2 3 C1.34 3 0.68 3 0 3 C0 2.01 0 1.02 0 0 Z " fill="#464638" transform="translate(38,24)"/>
<path d="M0 0 C1.485 0.99 1.485 0.99 3 2 C3 2.66 3 3.32 3 4 C3.66 4 4.32 4 5 4 C5.33 3.01 5.66 2.02 6 1 C7.5625 2 7.5625 2 9 4 C8.96726452 6.76614782 8.49404328 9.26030547 8 12 C6.1875 11.9375 6.1875 11.9375 4 11 C2.18743574 7.4420035 0.78426184 3.92130921 0 0 Z " fill="#403C2E" transform="translate(140,81)"/>
<path d="M0 0 C0.66 0 1.32 0 2 0 C3.48464636 3.24752413 4.96175048 6.49842444 6.4375 9.75 C6.85837891 10.67039062 7.27925781 11.59078125 7.71289062 12.5390625 C8.11572266 13.42851563 8.51855469 14.31796875 8.93359375 15.234375 C9.30540771 16.05131836 9.67722168 16.86826172 10.06030273 17.70996094 C10.91824143 19.80075463 11.5197505 21.79572119 12 24 C10.5 22.625 10.5 22.625 9 21 C9 20.34 9 19.68 9 19 C8.34 19 7.68 19 7 19 C6.73445312 18.21753906 6.46890625 17.43507813 6.1953125 16.62890625 C5.84210938 15.61699219 5.48890625 14.60507813 5.125 13.5625 C4.60292969 12.04849609 4.60292969 12.04849609 4.0703125 10.50390625 C3.25944907 7.86028249 3.25944907 7.86028249 1 7 C0.27306096 5.02111039 -0.39816251 3.02045442 -1 1 C-0.67 0.67 -0.34 0.34 0 0 Z " fill="#403D2E" transform="translate(128,57)"/>
<path d="M0 0 C0.66 0 1.32 0 2 0 C2.33 1.32 2.66 2.64 3 4 C2.01 4.495 2.01 4.495 1 5 C0.67 5.99 0.34 6.98 0 8 C-4.455 8.495 -4.455 8.495 -9 9 C-9.33 7.02 -9.66 5.04 -10 3 C-9.01 2.67 -8.02 2.34 -7 2 C-7 3.65 -7 5.3 -7 7 C-6.34 7 -5.68 7 -5 7 C-4.67 6.01 -4.34 5.02 -4 4 C-1.9375 2.8125 -1.9375 2.8125 0 2 C0 1.34 0 0.68 0 0 Z " fill="#3F3E2F" transform="translate(175,17)"/>
<path d="M0 0 C-1.32 1.65 -2.64 3.3 -4 5 C-1.69 4.34 0.62 3.68 3 3 C2.67 3.99 2.34 4.98 2 6 C-0.4375 7.125 -0.4375 7.125 -3 8 C-3.99 8.495 -3.99 8.495 -5 9 C-5.33 7.02 -5.66 5.04 -6 3 C-6.66 3 -7.32 3 -8 3 C-8.33 3.99 -8.66 4.98 -9 6 C-9.66 5.67 -10.32 5.34 -11 5 C-9.23723362 2.06205603 -8.14450048 1.06192878 -4.9375 -0.3125 C-2 -1 -2 -1 0 0 Z " fill="#4D4E3F" transform="translate(107,45)"/>
<path d="M0 0 C-2 2 -2 2 -4.0625 2.9375 C-6.34565884 3.90403542 -6.34565884 3.90403542 -7 7 C-8.65 7 -10.3 7 -12 7 C-12 6.34 -12 5.68 -12 5 C-11.01 4.67 -10.02 4.34 -9 4 C-11.31 3.34 -13.62 2.68 -16 2 C-16 1.67 -16 1.34 -16 1 C-10.63904667 -0.12862175 -5.44693314 -0.09688221 0 0 Z " fill="#464330" transform="translate(139,0)"/>
<path d="M0 0 C4.29 0 8.58 0 13 0 C12.67 0.66 12.34 1.32 12 2 C9.69 1.67 7.38 1.34 5 1 C5.7734375 1.8971875 5.7734375 1.8971875 6.5625 2.8125 C7.036875 3.534375 7.51125 4.25625 8 5 C7.67 5.99 7.34 6.98 7 8 C6.34 8 5.68 8 5 8 C5 7.01 5 6.02 5 5 C3.35 5 1.7 5 0 5 C-0.33 4.34 -0.66 3.68 -1 3 C-0.67 2.01 -0.34 1.02 0 0 Z " fill="#303328" transform="translate(40,0)"/>
<path d="M0 0 C1.65 0 3.3 0 5 0 C5 0.66 5 1.32 5 2 C5.66 2 6.32 2 7 2 C6.67 2.99 6.34 3.98 6 5 C5.01 5 4.02 5 3 5 C3 4.01 3 3.02 3 2 C2.01 2.66 1.02 3.32 0 4 C-1.32 4 -2.64 4 -4 4 C-4 4.66 -4 5.32 -4 6 C-5.65 6.33 -7.3 6.66 -9 7 C-9 4 -9 4 -7 2 C-3.375 1.875 -3.375 1.875 0 2 C0 1.34 0 0.68 0 0 Z " fill="#4C4E3D" transform="translate(63,17)"/>
<path d="M0 0 C0.33 0 0.66 0 1 0 C2.23839599 6.65637843 2.09139136 13.2471936 2 20 C1.01 19.67 0.02 19.34 -1 19 C-1.10655578 12.55929529 -0.96205088 6.37358711 0 0 Z " fill="#4D534C" transform="translate(155,123)"/>
<path d="M0 0 C5.75 -0.125 5.75 -0.125 8 1 C8 1.99 8 2.98 8 4 C8.99 4 9.98 4 11 4 C11 4.66 11 5.32 11 6 C4.67741935 6.36476427 4.67741935 6.36476427 1.5625 4.6875 C0 3 0 3 0 0 Z M-2 3 C0 4 0 4 0 4 Z " fill="#3E3F30" transform="translate(40,44)"/>
<path d="M0 0 C3.3 0 6.6 0 10 0 C10 0.33 10 0.66 10 1 C8.906875 1.20625 7.81375 1.4125 6.6875 1.625 C2.7714341 2.65663938 2.7714341 2.65663938 1.0625 6.125 C0.711875 7.07375 0.36125 8.0225 0 9 C-1.32 9 -2.64 9 -4 9 C-3.49396008 6.83125748 -3.00016187 5.00032373 -2 3 C-1.34 3 -0.68 3 0 3 C0 2.01 0 1.02 0 0 Z " fill="#505140" transform="translate(119,0)"/>
<path d="M0 0 C1.65 0.33 3.3 0.66 5 1 C5 2.98 5 4.96 5 7 C3.02 7.33 1.04 7.66 -1 8 C-0.67 5.36 -0.34 2.72 0 0 Z " fill="#828A88" transform="translate(140,160)"/>
<path d="M0 0 C0 0.99 0 1.98 0 3 C-0.66 3 -1.32 3 -2 3 C-1.67 3.99 -1.34 4.98 -1 6 C-3.64 6.33 -6.28 6.66 -9 7 C-9.33 6.01 -9.66 5.02 -10 4 C-7.18342017 0.590456 -4.32639749 0 0 0 Z " fill="#4D4F40" transform="translate(83,0)"/>
<path d="M0 0 C3.96 0 7.92 0 12 0 C11.67 1.32 11.34 2.64 11 4 C7.37 3.67 3.74 3.34 0 3 C0 2.01 0 1.02 0 0 Z " fill="#5C3926" transform="translate(178,134)"/>
<path d="M0 0 C1.32 0.33 2.64 0.66 4 1 C4 1.66 4 2.32 4 3 C4.66 3 5.32 3 6 3 C6 2.34 6 1.68 6 1 C6.99 1 7.98 1 9 1 C9.33 1.66 9.66 2.32 10 3 C10.99 3.66 11.98 4.32 13 5 C12.67 5.66 12.34 6.32 12 7 C10.68 7 9.36 7 8 7 C8 6.34 8 5.68 8 5 C6.8553125 4.814375 6.8553125 4.814375 5.6875 4.625 C3 4 3 4 0 2 C0 1.34 0 0.68 0 0 Z " fill="#61695D" transform="translate(45,8)"/>
<path d="M0 0 C0.33 1.65 0.66 3.3 1 5 C0.34 5 -0.32 5 -1 5 C-1.33 5.66 -1.66 6.32 -2 7 C-2.99 6.67 -3.98 6.34 -5 6 C-5 5.34 -5 4.68 -5 4 C-5.66 4 -6.32 4 -7 4 C-7 3.01 -7 2.02 -7 1 C-4 0 -4 0 0 0 Z " fill="#575B4E" transform="translate(74,25)"/>
<path d="M0 0 C0.99 0.495 0.99 0.495 2 1 C1.67 1.66 1.34 2.32 1 3 C1.99 3 2.98 3 4 3 C4 2.01 4 1.02 4 0 C5.65 0 7.3 0 9 0 C9 1.65 9 3.3 9 5 C6.08517222 5.80967438 4.53886783 6.21845993 1.6875 5.0625 C1.130625 4.711875 0.57375 4.36125 0 4 C0 2.68 0 1.36 0 0 Z " fill="#4C503F" transform="translate(87,14)"/>
<path d="M0 0 C0.33 0.99 0.66 1.98 1 3 C1.99 3.33 2.98 3.66 4 4 C3.67 4.99 3.34 5.98 3 7 C3.99 7.33 4.98 7.66 6 8 C5.67 8.66 5.34 9.32 5 10 C3.35 10 1.7 10 0 10 C0 9.34 0 8.68 0 8 C0.66 8 1.32 8 2 8 C2 7.34 2 6.68 2 6 C-0.475 5.01 -0.475 5.01 -3 4 C-2.01 2.68 -1.02 1.36 0 0 Z " fill="#5D6359" transform="translate(86,27)"/>
<path d="M0 0 C1.32 0 2.64 0 4 0 C4.33 0.99 4.66 1.98 5 3 C5.99 2.67 6.98 2.34 8 2 C8 2.66 8 3.32 8 4 C8.99 4 9.98 4 11 4 C11 4.66 11 5.32 11 6 C9.02 6 7.04 6 5 6 C4.67 7.32 4.34 8.64 4 10 C3.34 10 2.68 10 2 10 C2 9.01 2 8.02 2 7 C2.66 7 3.32 7 4 7 C3.67 5.02 3.34 3.04 3 1 C2.01 0.67 1.02 0.34 0 0 Z " fill="#515243" transform="translate(56,25)"/>
<path d="M0 0 C3 1 3 1 4 3 C4.33 2.01 4.66 1.02 5 0 C5.66 0.33 6.32 0.66 7 1 C6.67 2.65 6.34 4.3 6 6 C3.6875 6.625 3.6875 6.625 1 7 C0.01 6.34 -0.98 5.68 -2 5 C-2 4.34 -2 3.68 -2 3 C-1.34 3 -0.68 3 0 3 C0 2.01 0 1.02 0 0 Z " fill="#4E4F3E" transform="translate(85,3)"/>
<path d="M0 0 C0.66 0 1.32 0 2 0 C2 0.66 2 1.32 2 2 C2.66 2.33 3.32 2.66 4 3 C3.01 3 2.02 3 1 3 C1.33 4.32 1.66 5.64 2 7 C1.01 7 0.02 7 -1 7 C-1 7.99 -1 8.98 -1 10 C-2.32 9.67 -3.64 9.34 -5 9 C-4.34 9 -3.68 9 -3 9 C-3 7.35 -3 5.7 -3 4 C-2.01 3.67 -1.02 3.34 0 3 C0 2.01 0 1.02 0 0 Z " fill="#545648" transform="translate(118,33)"/>
<path d="M0 0 C2.64 0 5.28 0 8 0 C8 0.99 8 1.98 8 3 C6.02 3.66 4.04 4.32 2 5 C2 4.34 2 3.68 2 3 C1.01 3 0.02 3 -1 3 C-0.67 2.01 -0.34 1.02 0 0 Z " fill="#585F50" transform="translate(88,19)"/>
<path d="M0 0 C1.98 0 3.96 0 6 0 C6 0.66 6 1.32 6 2 C6.66 2 7.32 2 8 2 C7.67 3.32 7.34 4.64 7 6 C5.68 6 4.36 6 3 6 C3 5.01 3 4.02 3 3 C2.01 2.67 1.02 2.34 0 2 C0 1.34 0 0.68 0 0 Z " fill="#5B665C" transform="translate(45,1)"/>
<path d="M0 0 C1.65 0 3.3 0 5 0 C4.67 1.98 4.34 3.96 4 6 C2.35 5.67 0.7 5.34 -1 5 C-0.67 3.35 -0.34 1.7 0 0 Z " fill="#C3C5CB" transform="translate(96,84)"/>
<path d="M0 0 C0.33 0.66 0.66 1.32 1 2 C1.99 2.33 2.98 2.66 4 3 C3.6875 4.9375 3.6875 4.9375 3 7 C2.01 7.33 1.02 7.66 0 8 C-0.33 8.66 -0.66 9.32 -1 10 C-1.66 8.68 -2.32 7.36 -3 6 C-2.01 5.67 -1.02 5.34 0 5 C-0.2784375 4.0409375 -0.2784375 4.0409375 -0.5625 3.0625 C-0.706875 2.381875 -0.85125 1.70125 -1 1 C-0.67 0.67 -0.34 0.34 0 0 Z " fill="#484739" transform="translate(122,55)"/>
<path d="M0 0 C1.32 0 2.64 0 4 0 C4.6875 1.8125 4.6875 1.8125 5 4 C3.8125 5.75 3.8125 5.75 2 7 C0.68 7 -0.64 7 -2 7 C-2 5.68 -2 4.36 -2 3 C-1.01 3 -0.02 3 1 3 C0.67 2.01 0.34 1.02 0 0 Z " fill="#49493B" transform="translate(118,49)"/>
<path d="M0 0 C0.66 0 1.32 0 2 0 C2 0.99 2 1.98 2 3 C3.32 2.67 4.64 2.34 6 2 C5.6875 3.875 5.6875 3.875 5 6 C4.01 6.66 3.02 7.32 2 8 C1.67 8.66 1.34 9.32 1 10 C0.87625 9.236875 0.7525 8.47375 0.625 7.6875 C0.11897208 4.79732864 0.11897208 4.79732864 -2 2 C-1.34 2 -0.68 2 0 2 C0 1.34 0 0.68 0 0 Z " fill="#49483A" transform="translate(124,41)"/>
<path d="M0 0 C0.66 0.66 1.32 1.32 2 2 C1.61121812 5.01305957 0.73543126 6.39685311 -1 9 C-3.125 9.6875 -3.125 9.6875 -5 10 C-5.33 8.68 -5.66 7.36 -6 6 C-5.01 6 -4.02 6 -3 6 C-3 5.34 -3 4.68 -3 4 C-2.34 3.67 -1.68 3.34 -1 3 C-0.67 2.01 -0.34 1.02 0 0 Z " fill="#34301F" transform="translate(137,10)"/>
<path d="M0 0 C2.97 0 5.94 0 9 0 C9 0.66 9 1.32 9 2 C7.68 2.33 6.36 2.66 5 3 C5 4.65 5 6.3 5 8 C4.731875 7.360625 4.46375 6.72125 4.1875 6.0625 C3.11332248 3.66868314 3.11332248 3.66868314 0 3 C0 2.01 0 1.02 0 0 Z " fill="#404030" transform="translate(85,0)"/>
<path d="M0 0 C0.66 0.33 1.32 0.66 2 1 C1.125 7.75 1.125 7.75 0 10 C-0.99 9.67 -1.98 9.34 -3 9 C-2.44271087 5.65626525 -1.64826111 2.96687001 0 0 Z " fill="#50503F" transform="translate(99,3)"/>
<path d="M0 0 C0 0.66 0 1.32 0 2 C-1.32 2 -2.64 2 -4 2 C-4 2.99 -4 3.98 -4 5 C-4.66 5 -5.32 5 -6 5 C-6 5.66 -6 6.32 -6 7 C-6.99 7 -7.98 7 -9 7 C-8.1875 4.0625 -8.1875 4.0625 -7 1 C-4 0 -4 0 0 0 Z " fill="#4A4B3D" transform="translate(51,34)"/>
<path d="M0 0 C0.66 1.32 1.32 2.64 2 4 C1.01 5.485 1.01 5.485 0 7 C-0.99 7 -1.98 7 -3 7 C-3 7.66 -3 8.32 -3 9 C-3.66 9 -4.32 9 -5 9 C-5 6.69 -5 4.38 -5 2 C-3.68 2.33 -2.36 2.66 -1 3 C-0.67 2.01 -0.34 1.02 0 0 Z " fill="#4A4C3D" transform="translate(97,23)"/>
<path d="M0 0 C0.99 0.33 1.98 0.66 3 1 C2.67 1.66 2.34 2.32 2 3 C2.66 3 3.32 3 4 3 C4 4.32 4 5.64 4 7 C3.34 7 2.68 7 2 7 C2 7.66 2 8.32 2 9 C1.34 9 0.68 9 0 9 C0.33 7.35 0.66 5.7 1 4 C0.01 3.67 -0.98 3.34 -2 3 C-1.34 2.01 -0.68 1.02 0 0 Z " fill="#575D4F" transform="translate(71,13)"/>
<path d="M0 0 C0.99 0.66 1.98 1.32 3 2 C3 2.66 3 3.32 3 4 C3.66 4 4.32 4 5 4 C5 4.66 5 5.32 5 6 C1.7 6 -1.6 6 -5 6 C-3.68 5.67 -2.36 5.34 -1 5 C-0.67 3.35 -0.34 1.7 0 0 Z " fill="#464434" transform="translate(127,194)"/>
<path d="M0 0 C0.33 0.66 0.66 1.32 1 2 C3.31 2 5.62 2 8 2 C6.35 3.98 4.7 5.96 3 8 C2.34 7.67 1.68 7.34 1 7 C0.59270772 4.67843403 0.25561323 2.3431213 0 0 Z " fill="#3F4338" transform="translate(101,28)"/>
<path d="M0 0 C1.65 0 3.3 0 5 0 C5.33 0.66 5.66 1.32 6 2 C6.99 2.33 7.98 2.66 9 3 C9 3.66 9 4.32 9 5 C7.02 5 5.04 5 3 5 C2.67 4.01 2.34 3.02 2 2 C1.34 2 0.68 2 0 2 C0 1.34 0 0.68 0 0 Z " fill="#606858" transform="translate(54,0)"/>
<path d="M0 0 C0.66 0 1.32 0 2 0 C3.4783226 2.95664519 3.06032783 5.74229737 3 9 C1.68 8.67 0.36 8.34 -1 8 C-0.67 5.36 -0.34 2.72 0 0 Z " fill="#4D5043" transform="translate(141,49)"/>
<path d="M0 0 C0.99 0.66 1.98 1.32 3 2 C3 2.99 3 3.98 3 5 C0.69 5.33 -1.62 5.66 -4 6 C-4 5.01 -4 4.02 -4 3 C-2 1.3125 -2 1.3125 0 0 Z " fill="#5D5F51" transform="translate(77,51)"/>
<path d="M0 0 C0.99 0 1.98 0 3 0 C3 0.66 3 1.32 3 2 C4.32 1.34 5.64 0.68 7 0 C7 0.99 7 1.98 7 3 C5.02 3.33 3.04 3.66 1 4 C1 4.66 1 5.32 1 6 C-0.32 5.67 -1.64 5.34 -3 5 C-1.6875 2.5 -1.6875 2.5 0 0 Z " fill="#414335" transform="translate(92,33)"/>
<path d="M0 0 C0.33 0.99 0.66 1.98 1 3 C1.99 3 2.98 3 4 3 C4 3.99 4 4.98 4 6 C3.34 6 2.68 6 2 6 C1.67 6.99 1.34 7.98 1 9 C0.01 8.34 -0.98 7.68 -2 7 C-1.34 4.69 -0.68 2.38 0 0 Z " fill="#454636" transform="translate(57,32)"/>
<path d="M0 0 C0.99 0.66 1.98 1.32 3 2 C2.67 2.99 2.34 3.98 2 5 C2.66 5.33 3.32 5.66 4 6 C3.34 7.32 2.68 8.64 2 10 C1.01 9.01 0.02 8.02 -1 7 C-0.34 7 0.32 7 1 7 C1 5.68 1 4.36 1 3 C-0.32 3.33 -1.64 3.66 -3 4 C-2.67 3.01 -2.34 2.02 -2 1 C-1.34 0.67 -0.68 0.34 0 0 Z " fill="#3F3D2F" transform="translate(63,30)"/>
<path d="M0 0 C1.32 0.33 2.64 0.66 4 1 C4 1.99 4 2.98 4 4 C3.01 4.33 2.02 4.66 1 5 C0.67 5.66 0.34 6.32 0 7 C-0.66 6.67 -1.32 6.34 -2 6 C-2.625 3.9375 -2.625 3.9375 -3 2 C-2.01 2 -1.02 2 0 2 C0 1.34 0 0.68 0 0 Z " fill="#3F4134" transform="translate(104,37)"/>
<path d="M0 0 C1.32 0.33 2.64 0.66 4 1 C3.67 1.66 3.34 2.32 3 3 C3.66 3.33 4.32 3.66 5 4 C4.67 5.65 4.34 7.3 4 9 C3.34 8.67 2.68 8.34 2 8 C2.33 7.34 2.66 6.68 3 6 C2.34 6 1.68 6 1 6 C0.67 4.02 0.34 2.04 0 0 Z " fill="#373A2C" transform="translate(67,13)"/>
<path d="M0 0 C0.33 0.99 0.66 1.98 1 3 C1.66 3.66 2.32 4.32 3 5 C1.8125 6.5 1.8125 6.5 0 8 C-2.6875 8.1875 -2.6875 8.1875 -5 8 C-4.34 7.34 -3.68 6.68 -3 6 C-2.835 5.154375 -2.67 4.30875 -2.5 3.4375 C-2.335 2.633125 -2.17 1.82875 -2 1 C-1.34 0.67 -0.68 0.34 0 0 Z " fill="#3A3927" transform="translate(123,41)"/>
<path d="M0 0 C0.33 0 0.66 0 1 0 C1 3.66666667 1 7.33333333 1 11 C-0.65 10.67 -2.3 10.34 -4 10 C-2.68 6.7 -1.36 3.4 0 0 Z " fill="#545648" transform="translate(78,25)"/>
<path d="M0 0 C3 1 3 1 5 2 C5 2.66 5 3.32 5 4 C3.68 3.67 2.36 3.34 1 3 C1 3.99 1 4.98 1 6 C-0.65 5.67 -2.3 5.34 -4 5 C-3.34 4.67 -2.68 4.34 -2 4 C-2 3.34 -2 2.68 -2 2 C-1.34 2 -0.68 2 0 2 C0 1.34 0 0.68 0 0 Z " fill="#484B3C" transform="translate(60,12)"/>
<path d="M0 0 C0.66 0 1.32 0 2 0 C2 0.66 2 1.32 2 2 C2.66 2.33 3.32 2.66 4 3 C3.67 3.99 3.34 4.98 3 6 C1.02 6.33 -0.96 6.66 -3 7 C-3 6.34 -3 5.68 -3 5 C-2.34 5 -1.68 5 -1 5 C-0.67 3.35 -0.34 1.7 0 0 Z " fill="#535443" transform="translate(106,7)"/>
<path d="M0 0 C1.32 0 2.64 0 4 0 C4 2.64 4 5.28 4 8 C3.01 8 2.02 8 1 8 C1 6.68 1 5.36 1 4 C0.34 3.67 -0.32 3.34 -1 3 C-0.67 2.01 -0.34 1.02 0 0 Z " fill="#404030" transform="translate(87,9)"/>
<path d="M0 0 C0.66 1.32 1.32 2.64 2 4 C1.01 4 0.02 4 -1 4 C-1 3.34 -1 2.68 -1 2 C-3.31 2.33 -5.62 2.66 -8 3 C-8 2.34 -8 1.68 -8 1 C-5.07175348 0.02391783 -3.04386724 -0.08226668 0 0 Z " fill="#6B5849" transform="translate(36,105)"/>
<path d="M0 0 C1.32 0.66 2.64 1.32 4 2 C2.515 4.475 2.515 4.475 1 7 C-0.32 6.67 -1.64 6.34 -3 6 C-2.67 5.01 -2.34 4.02 -2 3 C-1.01 3 -0.02 3 1 3 C0.67 2.01 0.34 1.02 0 0 Z " fill="#4A493C" transform="translate(109,62)"/>
<path d="M0 0 C1.65 0 3.3 0 5 0 C5.103125 0.61875 5.20625 1.2375 5.3125 1.875 C5.87525373 4.36526484 5.87525373 4.36526484 9 6 C7.35 6 5.7 6 4 6 C3.34 4.68 2.68 3.36 2 2 C1.34 2 0.68 2 0 2 C0 1.34 0 0.68 0 0 Z " fill="#403F33" transform="translate(60,60)"/>
<path d="M0 0 C0.66 0 1.32 0 2 0 C2 0.66 2 1.32 2 2 C2.99 2 3.98 2 5 2 C5 2.66 5 3.32 5 4 C4.34 4 3.68 4 3 4 C3.66 5.32 4.32 6.64 5 8 C4.01 8.33 3.02 8.66 2 9 C1.34 6.03 0.68 3.06 0 0 Z " fill="#413F30" transform="translate(136,58)"/>
<path d="M0 0 C0.33 1.65 0.66 3.3 1 5 C0.05125 4.814375 -0.8975 4.62875 -1.875 4.4375 C-4.89868793 3.71313368 -4.89868793 3.71313368 -7 5 C-7 4.01 -7 3.02 -7 2 C-4.35261084 0.5393715 -3.10551666 0 0 0 Z " fill="#3F3C2D" transform="translate(184,25)"/>
<path d="M0 0 C0 2.83967231 -0.40267181 5.23735711 -1 8 C-1.66 8 -2.32 8 -3 8 C-3.33 6.35 -3.66 4.7 -4 3 C-4.66 3 -5.32 3 -6 3 C-6 2.34 -6 1.68 -6 1 C-4.02 0.67 -2.04 0.34 0 0 Z " fill="#4E4F42" transform="translate(18,0)"/>
<path d="M0 0 C5.75 0.875 5.75 0.875 8 2 C8 2.66 8 3.32 8 4 C6.25 4.6875 6.25 4.6875 4 5 C1.75 3.6875 1.75 3.6875 0 2 C0 1.34 0 0.68 0 0 Z " fill="#525446" transform="translate(107,191)"/>
<path d="M0 0 C0.33 1.98 0.66 3.96 1 6 C-0.98 6.99 -0.98 6.99 -3 8 C-2.67 6.35 -2.34 4.7 -2 3 C-2.99 2.67 -3.98 2.34 -5 2 C-2 0 -2 0 0 0 Z " fill="#947D6D" transform="translate(112,96)"/>
<path d="M0 0 C1.9375 0.5625 1.9375 0.5625 4 2 C4.75 5.625 4.75 5.625 5 9 C4.34 9 3.68 9 3 9 C3 8.01 3 7.02 3 6 C2.01 6.33 1.02 6.66 0 7 C0 4.66666667 0 2.33333333 0 0 Z " fill="#444336" transform="translate(132,48)"/>
<path d="M0 0 C0.99 0.33 1.98 0.66 3 1 C3 2.32 3 3.64 3 5 C-1.75 6.125 -1.75 6.125 -4 5 C-4 4.01 -4 3.02 -4 2 C-2.02 2.99 -2.02 2.99 0 4 C0 2.68 0 1.36 0 0 Z " fill="#5A5E4C" transform="translate(81,10)"/>
<path d="M0 0 C2.31 0 4.62 0 7 0 C7.33 0.66 7.66 1.32 8 2 C7.01 3.485 7.01 3.485 6 5 C6 4.34 6 3.68 6 3 C3.03 2.505 3.03 2.505 0 2 C0 1.34 0 0.68 0 0 Z " fill="#3B3A29" transform="translate(155,0)"/>
<path d="M0 0 C2.97 0 5.94 0 9 0 C8.67 1.32 8.34 2.64 8 4 C5.36 3.34 2.72 2.68 0 2 C0 1.34 0 0.68 0 0 Z " fill="#4A4F40" transform="translate(62,0)"/>
<path d="M0 0 C0.66 0 1.32 0 2 0 C3.4606285 2.64738916 4 3.89448334 4 7 C3.34 7 2.68 7 2 7 C2 6.34 2 5.68 2 5 C0.35 4.67 -1.3 4.34 -3 4 C-1.625 2 -1.625 2 0 0 Z " fill="#505142" transform="translate(99,16)"/>
<path d="M0 0 C-0.33 2.31 -0.66 4.62 -1 7 C-1.66 7 -2.32 7 -3 7 C-3.66 5.02 -4.32 3.04 -5 1 C-3 0 -3 0 0 0 Z " fill="#636D61" transform="translate(45,5)"/>
<path d="M0 0 C2.0625 0.4375 2.0625 0.4375 4 1 C3.67 1.99 3.34 2.98 3 4 C0.4375 5.1875 0.4375 5.1875 -2 6 C-1.125 1.125 -1.125 1.125 0 0 Z " fill="#3B3A2C" transform="translate(107,61)"/>
<path d="M0 0 C0.99 0 1.98 0 3 0 C2.67 0.99 2.34 1.98 2 3 C1.34 3 0.68 3 0 3 C0.33 3.99 0.66 4.98 1 6 C-0.32 6.33 -1.64 6.66 -3 7 C-1.125 2.25 -1.125 2.25 0 0 Z " fill="#3F3E2F" transform="translate(83,47)"/>
<path d="M0 0 C0.66 0 1.32 0 2 0 C2 0.99 2 1.98 2 3 C3.32 3.33 4.64 3.66 6 4 C6 4.66 6 5.32 6 6 C5.01 6 4.02 6 3 6 C3 5.34 3 4.68 3 4 C1.02 4.99 1.02 4.99 -1 6 C-0.67 4.02 -0.34 2.04 0 0 Z " fill="#3A382A" transform="translate(59,38)"/>
<path d="M0 0 C0.99 0.33 1.98 0.66 3 1 C2.67 2.65 2.34 4.3 2 6 C0.02 6 -1.96 6 -4 6 C-4 5.34 -4 4.68 -4 4 C-2.68 4 -1.36 4 0 4 C0 2.68 0 1.36 0 0 Z " fill="#403E31" transform="translate(26,34)"/>
<path d="M0 0 C0.66 0 1.32 0 2 0 C2 1.98 2 3.96 2 6 C0.35 6.33 -1.3 6.66 -3 7 C-2.67 5.68 -2.34 4.36 -2 3 C-1.34 3 -0.68 3 0 3 C0 2.01 0 1.02 0 0 Z " fill="#353524" transform="translate(83,0)"/>
<path d="M0 0 C2.62187494 1.04874998 3.79371361 1.64931313 5.25 4.125 C5.4975 4.74375 5.745 5.3625 6 6 C4.35 6 2.7 6 1 6 C0.4465236 3.92446352 0 2.15634036 0 0 Z " fill="#433F2E" transform="translate(146,171)"/>
<path d="M0 0 C1.98 0 3.96 0 6 0 C5.67 1.32 5.34 2.64 5 4 C3.68 4 2.36 4 1 4 C0.67 2.68 0.34 1.36 0 0 Z " fill="#797567" transform="translate(54,53)"/>
<path d="M0 0 C1.32 0.66 2.64 1.32 4 2 C3.34 2 2.68 2 2 2 C1.67 3.65 1.34 5.3 1 7 C0.01 6.34 -0.98 5.68 -2 5 C-2 4.01 -2 3.02 -2 2 C-1.34 2 -0.68 2 0 2 C0 1.34 0 0.68 0 0 Z " fill="#464638" transform="translate(51,18)"/>
<path d="M0 0 C1.98 0 3.96 0 6 0 C5.67 1.65 5.34 3.3 5 5 C4.67 4.34 4.34 3.68 4 3 C2.35 3 0.7 3 -1 3 C-0.67 2.01 -0.34 1.02 0 0 Z " fill="#39382A" transform="translate(19,0)"/>
<path d="M0 0 C1.98 0 3.96 0 6 0 C5.34 1.32 4.68 2.64 4 4 C2.68 4 1.36 4 0 4 C0 2.68 0 1.36 0 0 Z " fill="#393728" transform="translate(189,21)"/>
<path d="M0 0 C0 0.66 0 1.32 0 2 C-3 4 -3 4 -5.1875 3.625 C-5.785625 3.41875 -6.38375 3.2125 -7 3 C-7 2.34 -7 1.68 -7 1 C-4.50935112 0.31292445 -2.62113708 0 0 0 Z " fill="#464538" transform="translate(28,9)"/>
<path d="M0 0 C0.33 0.66 0.66 1.32 1 2 C3.52733235 2.65555119 3.52733235 2.65555119 6 3 C5.01 3.495 5.01 3.495 4 4 C4 4.66 4 5.32 4 6 C3.34 6 2.68 6 2 6 C2 5.34 2 4.68 2 4 C1.01 3.67 0.02 3.34 -1 3 C-0.67 2.01 -0.34 1.02 0 0 Z " fill="#4B5345" transform="translate(47,5)"/>
<path d="M0 0 C2.31 0.33 4.62 0.66 7 1 C6.67 1.66 6.34 2.32 6 3 C3.67843403 3.40729228 1.3431213 3.74438677 -1 4 C-0.67 2.68 -0.34 1.36 0 0 Z " fill="#363A2D" transform="translate(59,5)"/>
<path d="M0 0 C0.33 0.99 0.66 1.98 1 3 C3.01508358 3.73323796 3.01508358 3.73323796 5 4 C0.25 5.125 0.25 5.125 -2 4 C-1.34 2.68 -0.68 1.36 0 0 Z " fill="#3C3B2D" transform="translate(69,60)"/>
<path d="M0 0 C0.66 0 1.32 0 2 0 C2 0.66 2 1.32 2 2 C2.99 2.33 3.98 2.66 5 3 C4.01 3 3.02 3 2 3 C2 3.66 2 4.32 2 5 C0.68 4.34 -0.64 3.68 -2 3 C-1.34 2.01 -0.68 1.02 0 0 Z " fill="#383527" transform="translate(70,45)"/>
<path d="M0 0 C1.32 1.65 2.64 3.3 4 5 C2.02 5 0.04 5 -2 5 C-2 3.68 -2 2.36 -2 1 C-1.34 0.67 -0.68 0.34 0 0 Z " fill="#515343" transform="translate(50,26)"/>
<path d="M0 0 C0.99 0.33 1.98 0.66 3 1 C2.67 2.32 2.34 3.64 2 5 C1.34 5 0.68 5 0 5 C0 4.34 0 3.68 0 3 C-0.99 2.67 -1.98 2.34 -3 2 C-2.01 1.34 -1.02 0.68 0 0 Z " fill="#565949" transform="translate(83,21)"/>
<path d="M0 0 C0.66 0 1.32 0 2 0 C2.625 1.875 2.625 1.875 3 4 C2.34 4.66 1.68 5.32 1 6 C0.01 6 -0.98 6 -2 6 C-1.34 4.02 -0.68 2.04 0 0 Z " fill="#44402E" transform="translate(128,17)"/>
<path d="M0 0 C0.66 0 1.32 0 2 0 C2 2.97 2 5.94 2 9 C1.34 7.68 0.68 6.36 0 5 C-0.66 4.67 -1.32 4.34 -2 4 C-1.34 2.68 -0.68 1.36 0 0 Z " fill="#373526" transform="translate(177,12)"/>
<path d="M0 0 C0.33 0.99 0.66 1.98 1 3 C1.66 3 2.32 3 3 3 C3 3.66 3 4.32 3 5 C2.01 5.33 1.02 5.66 0 6 C-0.99 4.35 -1.98 2.7 -3 1 C-2.01 0.67 -1.02 0.34 0 0 Z " fill="#3D4436" transform="translate(55,6)"/>
<path d="M0 0 C2.97 0.495 2.97 0.495 6 1 C3.4345406 3.5654594 1.52313332 3.54046087 -2 4 C-2 3.34 -2 2.68 -2 2 C-1.34 2 -0.68 2 0 2 C0 1.34 0 0.68 0 0 Z " fill="#403C2C" transform="translate(152,4)"/>
<path d="M0 0 C0.66 0 1.32 0 2 0 C3.125 3.75 3.125 3.75 2 6 C1.01 5.67 0.02 5.34 -1 5 C-0.67 3.35 -0.34 1.7 0 0 Z " fill="#4C4E42" transform="translate(25,0)"/>
</svg>
