<svg xmlns="http://www.w3.org/2000/svg" width="25" height="24" viewBox="0 0 25 24" fill="none">
  <path d="M7.16669 21H5.16669C4.61669 21 4.14585 20.8042 3.75419 20.4125C3.36252 20.0208 3.16669 19.55 3.16669 19V12C3.16669 10.75 3.40419 9.57917 3.87919 8.4875C4.35419 7.39583 4.99585 6.44583 5.80419 5.6375C6.61252 4.82917 7.56252 4.1875 8.65419 3.7125C9.74585 3.2375 10.9167 3 12.1667 3C13.4167 3 14.5875 3.2375 15.6792 3.7125C16.7709 4.1875 17.7209 4.82917 18.5292 5.6375C19.3375 6.44583 19.9792 7.39583 20.4542 8.4875C20.9292 9.57917 21.1667 10.75 21.1667 12V19C21.1667 19.55 20.9709 20.0208 20.5792 20.4125C20.1875 20.8042 19.7167 21 19.1667 21H17.1667C16.6167 21 16.1459 20.8042 15.7542 20.4125C15.3625 20.0208 15.1667 19.55 15.1667 19V15C15.1667 14.45 15.3625 13.9792 15.7542 13.5875C16.1459 13.1958 16.6167 13 17.1667 13H19.1667V12C19.1667 10.05 18.4875 8.39583 17.1292 7.0375C15.7709 5.67917 14.1167 5 12.1667 5C10.2167 5 8.56252 5.67917 7.20419 7.0375C5.84585 8.39583 5.16669 10.05 5.16669 12V13H7.16669C7.71669 13 8.18752 13.1958 8.57919 13.5875C8.97085 13.9792 9.16669 14.45 9.16669 15V19C9.16669 19.55 8.97085 20.0208 8.57919 20.4125C8.18752 20.8042 7.71669 21 7.16669 21Z" fill="#F2EAFD"/>
</svg>