<svg xmlns="http://www.w3.org/2000/svg" width="25" height="24" viewBox="0 0 25 24" fill="none">
  <path d="M12.8333 20.325C12.6 20.325 12.3625 20.2833 12.1208 20.2C11.8792 20.1167 11.6667 19.9833 11.4833 19.8L9.75834 18.225C7.99168 16.6083 6.39584 15.0042 4.97084 13.4125C3.54584 11.8208 2.83334 10.0667 2.83334 8.14999C2.83334 6.58333 3.35834 5.27499 4.40834 4.22499C5.45834 3.17499 6.76668 2.64999 8.33334 2.64999C9.21668 2.64999 10.05 2.83749 10.8333 3.21249C11.6167 3.58749 12.2833 4.09999 12.8333 4.74999C13.3833 4.09999 14.05 3.58749 14.8333 3.21249C15.6167 2.83749 16.45 2.64999 17.3333 2.64999C18.9 2.64999 20.2083 3.17499 21.2583 4.22499C22.3083 5.27499 22.8333 6.58333 22.8333 8.14999C22.8333 10.0667 22.125 11.825 20.7083 13.425C19.2917 15.025 17.6833 16.6333 15.8833 18.25L14.1833 19.8C14 19.9833 13.7875 20.1167 13.5458 20.2C13.3042 20.2833 13.0667 20.325 12.8333 20.325Z" fill="#F2EAFD"/>
</svg>